M48
; DRILL file {KiCad 7.0.10} date Saturday, February 03, 2024 at 04:55:38 PM
; FORMAT={-:-/ absolute / metric / decimal}
; #@! TF.CreationDate,2024-02-03T16:55:38+08:00
; #@! TF.GenerationSoftware,Kicad,Pcbnew,7.0.10
; #@! TF.FileFunction,Plated,1,2,PTH
FMAT,2
METRIC
; #@! TA.AperFunction,Plated,PTH,ViaDrill
T1C0.300
; #@! TA.AperFunction,Plated,PTH,ViaDrill
T2C0.400
; #@! TA.AperFunction,Plated,PTH,ComponentDrill
T3C0.599
; #@! TA.AperFunction,Plated,PTH,ComponentDrill
T4C0.800
; #@! TA.AperFunction,Plated,PTH,ComponentDrill
T5C1.000
%
G90
G05
T1
X110.647Y-98.81
X111.017Y-94.19
X111.049Y-95.49
X111.907Y-81.7
X112.227Y-95.47
X113.227Y-94.19
X114.122Y-81.175
X114.147Y-82.31
X114.167Y-83.07
X114.367Y-90.29
X115.507Y-90.86
X115.567Y-94.2
X116.407Y-83.29
X116.627Y-88.5
X116.627Y-90.85
X117.699Y-93.32
X117.837Y-88.36
X117.847Y-83.91
X119.747Y-92.97
X120.157Y-81.36
X120.328Y-97.57
X120.807Y-81.35
X122.877Y-92.728
X123.887Y-87.475
X123.887Y-89.38
X124.807Y-88.41
X124.807Y-88.41
X124.993Y-82.31
X125.665Y-79.742
X125.669Y-93.0
X125.792Y-87.475
X125.792Y-89.38
X125.984Y-96.774
X125.984Y-98.806
X126.975Y-80.528
X126.977Y-97.81
X127.387Y-92.92
X128.016Y-96.774
X128.016Y-98.806
X129.097Y-84.0
X129.498Y-89.7
X130.058Y-90.6
X130.207Y-95.56
X130.338Y-88.21
X130.707Y-97.01
X130.81Y-95.984
X130.827Y-94.84
X131.547Y-84.01
X131.957Y-93.96
X132.118Y-86.31
X132.498Y-91.05
X133.137Y-98.94
X134.112Y-100.076
X134.528Y-102.32
X134.748Y-95.19
X134.797Y-88.08
X135.077Y-85.33
X135.558Y-91.2
X135.637Y-101.98
X136.278Y-91.2
X136.968Y-96.3
X138.968Y-102.33
X139.002Y-97.863
X139.446Y-99.822
X139.618Y-92.43
X140.077Y-101.96
X140.716Y-98.298
T2
X119.747Y-84.86
X119.753Y-87.928
T4
X109.733Y-107.28
X109.733Y-109.28
X109.753Y-111.68
X109.753Y-113.68
X111.925Y-107.28
X111.925Y-109.28
X111.946Y-111.68
X111.946Y-113.68
X114.117Y-107.28
X114.117Y-109.28
X114.139Y-111.68
X114.139Y-113.68
X116.31Y-107.28
X116.31Y-109.28
X116.332Y-111.68
X116.332Y-113.68
X118.502Y-107.28
X118.502Y-109.28
X118.525Y-111.68
X118.525Y-113.68
X120.694Y-107.28
X120.694Y-109.28
X120.718Y-111.68
X120.718Y-113.68
X122.887Y-107.28
X122.887Y-109.28
X122.911Y-111.68
X122.911Y-113.68
X125.079Y-107.28
X125.079Y-109.28
X125.104Y-111.68
X125.104Y-113.68
X127.271Y-107.28
X127.271Y-109.28
X127.297Y-111.68
X127.297Y-113.68
X129.464Y-107.28
X129.464Y-109.28
X129.491Y-111.68
X129.491Y-113.68
X131.656Y-107.28
X131.656Y-109.28
X131.684Y-111.68
X131.684Y-113.68
X133.848Y-107.28
X133.848Y-109.28
X133.877Y-111.68
X133.877Y-113.68
X136.041Y-107.28
X136.041Y-109.28
X136.07Y-111.68
X136.07Y-113.68
X138.233Y-107.28
X138.233Y-109.28
X138.263Y-111.68
X138.263Y-113.68
T5
X111.703Y-102.97
X114.242Y-102.97
X130.487Y-81.01
X133.028Y-81.01
X135.567Y-81.01
X138.107Y-81.01
T3
X108.239Y-82.742G85X107.64Y-82.742
G05
X108.239Y-91.383G85X107.64Y-91.383
G05
X112.721Y-82.742G85X111.519Y-82.742
G05
X112.721Y-91.383G85X111.519Y-91.383
G05
M30
