%TF.GenerationSoftware,KiCad,Pcbnew,7.0.10*%
%TF.CreationDate,2024-02-03T16:53:45+08:00*%
%TF.ProjectId,ad7142-eval,61643731-3432-42d6-9576-616c2e6b6963,rev?*%
%TF.SameCoordinates,Original*%
%TF.FileFunction,Copper,L2,Bot*%
%TF.FilePolarity,Positive*%
%FSLAX46Y46*%
G04 Gerber Fmt 4.6, Leading zero omitted, Abs format (unit mm)*
G04 Created by KiCad (PCBNEW 7.0.10) date 2024-02-03 16:53:45*
%MOMM*%
%LPD*%
G01*
G04 APERTURE LIST*
%TA.AperFunction,ComponentPad*%
%ADD10R,1.350000X1.350000*%
%TD*%
%TA.AperFunction,ComponentPad*%
%ADD11O,1.350000X1.350000*%
%TD*%
%TA.AperFunction,ComponentPad*%
%ADD12R,1.700000X1.700000*%
%TD*%
%TA.AperFunction,ComponentPad*%
%ADD13O,1.700000X1.700000*%
%TD*%
%TA.AperFunction,ComponentPad*%
%ADD14O,1.600200X1.000800*%
%TD*%
%TA.AperFunction,ComponentPad*%
%ADD15O,2.100600X1.000800*%
%TD*%
%TA.AperFunction,ViaPad*%
%ADD16C,0.500000*%
%TD*%
%TA.AperFunction,ViaPad*%
%ADD17C,0.800000*%
%TD*%
%TA.AperFunction,Conductor*%
%ADD18C,0.177800*%
%TD*%
%TA.AperFunction,Conductor*%
%ADD19C,0.304800*%
%TD*%
%TA.AperFunction,Conductor*%
%ADD20C,0.457200*%
%TD*%
G04 APERTURE END LIST*
D10*
%TO.P,J23,1,Pin_1*%
%TO.N,Net-(J17-Pin_1)*%
X122911342Y-111680000D03*
D11*
%TO.P,J23,2,Pin_2*%
%TO.N,Net-(J17-Pin_2)*%
X122911342Y-113680000D03*
%TD*%
D10*
%TO.P,J11,1,Pin_1*%
%TO.N,Net-(J10-Pin_1)*%
X127271342Y-109280000D03*
D11*
%TO.P,J11,2,Pin_2*%
%TO.N,Net-(J11-Pin_2)*%
X127271342Y-107280000D03*
%TD*%
D10*
%TO.P,J17,1,Pin_1*%
%TO.N,Net-(J17-Pin_1)*%
X109752886Y-111680000D03*
D11*
%TO.P,J17,2,Pin_2*%
%TO.N,Net-(J17-Pin_2)*%
X109752886Y-113680000D03*
%TD*%
D10*
%TO.P,J12,1,Pin_1*%
%TO.N,Net-(J10-Pin_1)*%
X129463649Y-109280000D03*
D11*
%TO.P,J12,2,Pin_2*%
%TO.N,Net-(J12-Pin_2)*%
X129463649Y-107280000D03*
%TD*%
D12*
%TO.P,J1,1,Pin_1*%
%TO.N,+3V3*%
X138107500Y-81010000D03*
D13*
%TO.P,J1,2,Pin_2*%
%TO.N,/SWCLK*%
X135567500Y-81010000D03*
%TO.P,J1,3,Pin_3*%
%TO.N,/SWDIO*%
X133027500Y-81010000D03*
%TO.P,J1,4,Pin_4*%
%TO.N,GND*%
X130487500Y-81010000D03*
%TD*%
D10*
%TO.P,J10,1,Pin_1*%
%TO.N,Net-(J10-Pin_1)*%
X125079035Y-109280000D03*
D11*
%TO.P,J10,2,Pin_2*%
%TO.N,Net-(J10-Pin_2)*%
X125079035Y-107280000D03*
%TD*%
D10*
%TO.P,J29,1,Pin_1*%
%TO.N,Net-(J17-Pin_1)*%
X136069798Y-111680000D03*
D11*
%TO.P,J29,2,Pin_2*%
%TO.N,Net-(J17-Pin_2)*%
X136069798Y-113680000D03*
%TD*%
D10*
%TO.P,J14,1,Pin_1*%
%TO.N,Net-(J10-Pin_1)*%
X133848263Y-109280000D03*
D11*
%TO.P,J14,2,Pin_2*%
%TO.N,Net-(J14-Pin_2)*%
X133848263Y-107280000D03*
%TD*%
D10*
%TO.P,J16,1,Pin_1*%
%TO.N,Net-(J10-Pin_1)*%
X138232877Y-109280000D03*
D11*
%TO.P,J16,2,Pin_2*%
%TO.N,Net-(J16-Pin_2)*%
X138232877Y-107280000D03*
%TD*%
D10*
%TO.P,J19,1,Pin_1*%
%TO.N,Net-(J17-Pin_1)*%
X114139038Y-111680000D03*
D11*
%TO.P,J19,2,Pin_2*%
%TO.N,Net-(J17-Pin_2)*%
X114139038Y-113680000D03*
%TD*%
D10*
%TO.P,J18,1,Pin_1*%
%TO.N,Net-(J17-Pin_1)*%
X111945962Y-111680000D03*
D11*
%TO.P,J18,2,Pin_2*%
%TO.N,Net-(J17-Pin_2)*%
X111945962Y-113680000D03*
%TD*%
D10*
%TO.P,J9,1,Pin_1*%
%TO.N,Net-(J10-Pin_1)*%
X122886728Y-109280000D03*
D11*
%TO.P,J9,2,Pin_2*%
%TO.N,Net-(J9-Pin_2)*%
X122886728Y-107280000D03*
%TD*%
D10*
%TO.P,J20,1,Pin_1*%
%TO.N,Net-(J17-Pin_1)*%
X116332114Y-111680000D03*
D11*
%TO.P,J20,2,Pin_2*%
%TO.N,Net-(J17-Pin_2)*%
X116332114Y-113680000D03*
%TD*%
D10*
%TO.P,J7,1,Pin_1*%
%TO.N,Net-(J10-Pin_1)*%
X118502114Y-109280000D03*
D11*
%TO.P,J7,2,Pin_2*%
%TO.N,Net-(J7-Pin_2)*%
X118502114Y-107280000D03*
%TD*%
D10*
%TO.P,J15,1,Pin_1*%
%TO.N,Net-(J10-Pin_1)*%
X136040570Y-109280000D03*
D11*
%TO.P,J15,2,Pin_2*%
%TO.N,Net-(J15-Pin_2)*%
X136040570Y-107280000D03*
%TD*%
D10*
%TO.P,J13,1,Pin_1*%
%TO.N,Net-(J10-Pin_1)*%
X131655956Y-109280000D03*
D11*
%TO.P,J13,2,Pin_2*%
%TO.N,Net-(J13-Pin_2)*%
X131655956Y-107280000D03*
%TD*%
D10*
%TO.P,J22,1,Pin_1*%
%TO.N,Net-(J17-Pin_1)*%
X120718266Y-111680000D03*
D11*
%TO.P,J22,2,Pin_2*%
%TO.N,Net-(J17-Pin_2)*%
X120718266Y-113680000D03*
%TD*%
D10*
%TO.P,J24,1,Pin_1*%
%TO.N,Net-(J17-Pin_1)*%
X125104418Y-111680000D03*
D11*
%TO.P,J24,2,Pin_2*%
%TO.N,Net-(J17-Pin_2)*%
X125104418Y-113680000D03*
%TD*%
D10*
%TO.P,J28,1,Pin_1*%
%TO.N,Net-(J17-Pin_1)*%
X133876722Y-111680000D03*
D11*
%TO.P,J28,2,Pin_2*%
%TO.N,Net-(J17-Pin_2)*%
X133876722Y-113680000D03*
%TD*%
D10*
%TO.P,J25,1,Pin_1*%
%TO.N,Net-(J17-Pin_1)*%
X127297494Y-111680000D03*
D11*
%TO.P,J25,2,Pin_2*%
%TO.N,Net-(J17-Pin_2)*%
X127297494Y-113680000D03*
%TD*%
D10*
%TO.P,J6,1,Pin_1*%
%TO.N,Net-(J10-Pin_1)*%
X116309807Y-109280000D03*
D11*
%TO.P,J6,2,Pin_2*%
%TO.N,Net-(J6-Pin_2)*%
X116309807Y-107280000D03*
%TD*%
D10*
%TO.P,J21,1,Pin_1*%
%TO.N,Net-(J17-Pin_1)*%
X118525190Y-111680000D03*
D11*
%TO.P,J21,2,Pin_2*%
%TO.N,Net-(J17-Pin_2)*%
X118525190Y-113680000D03*
%TD*%
D10*
%TO.P,J26,1,Pin_1*%
%TO.N,Net-(J17-Pin_1)*%
X129490570Y-111680000D03*
D11*
%TO.P,J26,2,Pin_2*%
%TO.N,Net-(J17-Pin_2)*%
X129490570Y-113680000D03*
%TD*%
D10*
%TO.P,J27,1,Pin_1*%
%TO.N,Net-(J17-Pin_1)*%
X131683646Y-111680000D03*
D11*
%TO.P,J27,2,Pin_2*%
%TO.N,Net-(J17-Pin_2)*%
X131683646Y-113680000D03*
%TD*%
D10*
%TO.P,J3,1,Pin_1*%
%TO.N,Net-(J10-Pin_1)*%
X109732886Y-109280000D03*
D11*
%TO.P,J3,2,Pin_2*%
%TO.N,Net-(J3-Pin_2)*%
X109732886Y-107280000D03*
%TD*%
D10*
%TO.P,J4,1,Pin_1*%
%TO.N,Net-(J10-Pin_1)*%
X111925193Y-109280000D03*
D11*
%TO.P,J4,2,Pin_2*%
%TO.N,Net-(J4-Pin_2)*%
X111925193Y-107280000D03*
%TD*%
D10*
%TO.P,J8,1,Pin_1*%
%TO.N,Net-(J10-Pin_1)*%
X120694421Y-109280000D03*
D11*
%TO.P,J8,2,Pin_2*%
%TO.N,Net-(J8-Pin_2)*%
X120694421Y-107280000D03*
%TD*%
D10*
%TO.P,J30,1,Pin_1*%
%TO.N,Net-(J17-Pin_1)*%
X138262874Y-111680000D03*
D11*
%TO.P,J30,2,Pin_2*%
%TO.N,Net-(J17-Pin_2)*%
X138262874Y-113680000D03*
%TD*%
D14*
%TO.P,USB1,16,GND*%
%TO.N,/SHIELD*%
X107939400Y-91382900D03*
%TO.P,USB1,15,GND*%
X107939400Y-82741900D03*
D15*
%TO.P,USB1,14,GND*%
X112120200Y-91382900D03*
%TO.P,USB1,13,GND*%
X112120200Y-82741900D03*
%TD*%
D10*
%TO.P,J5,1,Pin_1*%
%TO.N,Net-(J10-Pin_1)*%
X114117500Y-109280000D03*
D11*
%TO.P,J5,2,Pin_2*%
%TO.N,Net-(J5-Pin_2)*%
X114117500Y-107280000D03*
%TD*%
D12*
%TO.P,J2,1,Pin_1*%
%TO.N,/QSPI_CS*%
X114242500Y-102970000D03*
D13*
%TO.P,J2,2,Pin_2*%
%TO.N,Net-(J2-Pin_2)*%
X111702500Y-102970000D03*
%TD*%
D16*
%TO.N,GND*%
X134112000Y-100076000D03*
X140716000Y-98298000D03*
X139446000Y-99822000D03*
%TO.N,/SRC*%
X130810000Y-95984000D03*
X139001704Y-97863318D03*
%TO.N,GND*%
X125984000Y-98806000D03*
X128016000Y-98806000D03*
X128016000Y-96774000D03*
X125984000Y-96774000D03*
X126977500Y-97810000D03*
%TO.N,Net-(U4-AVCC)*%
X130207500Y-95560000D03*
X130707500Y-97010000D03*
%TO.N,GND*%
X131957500Y-93960000D03*
X123887500Y-89380000D03*
X123887500Y-87475000D03*
X124807500Y-88410000D03*
X125792500Y-87475000D03*
X125792500Y-89380000D03*
X124807500Y-88410000D03*
X136277500Y-91200000D03*
X132497500Y-91050000D03*
%TO.N,+3V3*%
X136967500Y-96300000D03*
X134747500Y-95190000D03*
%TO.N,GND*%
X120327500Y-97570000D03*
%TO.N,+3V3*%
X125668600Y-92999692D03*
X122876619Y-92727547D03*
%TO.N,GND*%
X116627500Y-88500000D03*
X115567500Y-94200000D03*
%TO.N,/QSPI_CLK*%
X111048600Y-95490000D03*
X112227500Y-95470000D03*
%TO.N,/QSPI_D0*%
X111017500Y-94190000D03*
X113227500Y-94190000D03*
%TO.N,+3V3*%
X117698600Y-93320000D03*
X119747500Y-92970000D03*
%TO.N,GND*%
X110647500Y-98810000D03*
X133137500Y-98940000D03*
X130827500Y-94840000D03*
X135077500Y-85330000D03*
%TO.N,+3V3*%
X131547500Y-84010000D03*
X130337500Y-88210000D03*
%TO.N,GND*%
X132117500Y-86310000D03*
X134797500Y-88080000D03*
X135557500Y-91200000D03*
X139617500Y-92430000D03*
%TO.N,/CSHILED*%
X134527500Y-102320000D03*
X138967500Y-102330000D03*
%TO.N,GND*%
X140077500Y-101960000D03*
X135637500Y-101980000D03*
X127387500Y-92920000D03*
X124993183Y-82310000D03*
X111907500Y-81700000D03*
X114147500Y-82310000D03*
X114167500Y-83070000D03*
X114122500Y-81175000D03*
X120157500Y-81360000D03*
X120807500Y-81350000D03*
X125665000Y-79742500D03*
X126975000Y-80527500D03*
X116407500Y-83290000D03*
X117847500Y-83910000D03*
X117837500Y-88360000D03*
X114367500Y-90290000D03*
X115507500Y-90860000D03*
X116627500Y-90850000D03*
X129497874Y-89699626D03*
%TO.N,+3V3*%
X130057500Y-90600000D03*
X129097500Y-84000000D03*
D17*
X119747500Y-84860000D03*
X119752916Y-87927627D03*
%TD*%
D18*
%TO.N,/SRC*%
X135382000Y-96012000D02*
X130838000Y-96012000D01*
X139001704Y-97863318D02*
X138166386Y-97028000D01*
X138166386Y-97028000D02*
X136398000Y-97028000D01*
X136398000Y-97028000D02*
X135382000Y-96012000D01*
X130838000Y-96012000D02*
X130810000Y-95984000D01*
D19*
%TO.N,Net-(U4-AVCC)*%
X130207500Y-95560000D02*
X130207500Y-96510000D01*
X130207500Y-96510000D02*
X130707500Y-97010000D01*
D18*
%TO.N,GND*%
X123887500Y-87475000D02*
X123887500Y-87490000D01*
D20*
%TO.N,+3V3*%
X135857500Y-95190000D02*
X136967500Y-96300000D01*
X134747500Y-95190000D02*
X135857500Y-95190000D01*
D18*
X125668600Y-92999692D02*
X125477192Y-92999692D01*
X125477192Y-92999692D02*
X125205047Y-92727547D01*
X125205047Y-92727547D02*
X122876619Y-92727547D01*
D19*
%TO.N,/QSPI_D0*%
X113227500Y-94190000D02*
X111017500Y-94190000D01*
D18*
%TO.N,/QSPI_CLK*%
X112227500Y-95470000D02*
X111068600Y-95470000D01*
X111068600Y-95470000D02*
X111048600Y-95490000D01*
D20*
%TO.N,+3V3*%
X118087500Y-92970000D02*
X117737500Y-93320000D01*
X119747500Y-92970000D02*
X118087500Y-92970000D01*
X117737500Y-93320000D02*
X117698600Y-93320000D01*
X119747500Y-84860000D02*
X119747500Y-92970000D01*
X130328526Y-85228974D02*
X131547500Y-84010000D01*
X130326474Y-85228974D02*
X130328526Y-85228974D01*
D19*
%TO.N,/CSHILED*%
X134789900Y-102582400D02*
X138715100Y-102582400D01*
X138715100Y-102582400D02*
X138967500Y-102330000D01*
X134527500Y-102320000D02*
X134789900Y-102582400D01*
D20*
%TO.N,+3V3*%
X130326474Y-85228974D02*
X129097500Y-84000000D01*
X130326474Y-90331026D02*
X130326474Y-85228974D01*
X130057500Y-90600000D02*
X130326474Y-90331026D01*
D19*
X119747500Y-84860000D02*
X119747500Y-87922211D01*
X119747500Y-87922211D02*
X119752916Y-87927627D01*
%TD*%
%TA.AperFunction,Conductor*%
%TO.N,GND*%
G36*
X140412892Y-78910972D02*
G01*
X140424933Y-78912025D01*
X140452380Y-78914426D01*
X140453461Y-78914526D01*
X140579273Y-78926918D01*
X140599187Y-78930541D01*
X140663935Y-78947890D01*
X140667702Y-78948966D01*
X140759070Y-78976681D01*
X140775459Y-78982952D01*
X140841352Y-79013679D01*
X140847389Y-79016698D01*
X140926550Y-79059010D01*
X140939209Y-79066786D01*
X141000388Y-79109624D01*
X141007927Y-79115344D01*
X141075955Y-79171172D01*
X141084972Y-79179345D01*
X141138153Y-79232526D01*
X141146326Y-79241543D01*
X141202154Y-79309571D01*
X141207874Y-79317110D01*
X141250704Y-79378276D01*
X141258488Y-79390948D01*
X141300800Y-79470109D01*
X141303824Y-79476156D01*
X141334541Y-79542027D01*
X141340820Y-79558438D01*
X141368513Y-79649730D01*
X141369627Y-79653632D01*
X141386954Y-79718299D01*
X141390582Y-79738239D01*
X141402956Y-79863882D01*
X141403081Y-79865223D01*
X141406528Y-79904604D01*
X141407000Y-79915416D01*
X141407000Y-113904583D01*
X141406528Y-113915396D01*
X141403081Y-113954776D01*
X141402956Y-113956116D01*
X141390582Y-114081759D01*
X141386954Y-114101699D01*
X141369627Y-114166366D01*
X141368513Y-114170268D01*
X141340820Y-114261560D01*
X141334541Y-114277971D01*
X141303824Y-114343842D01*
X141300800Y-114349889D01*
X141258488Y-114429050D01*
X141250704Y-114441722D01*
X141207874Y-114502888D01*
X141202154Y-114510427D01*
X141146326Y-114578455D01*
X141138153Y-114587472D01*
X141084972Y-114640653D01*
X141075955Y-114648826D01*
X141007927Y-114704654D01*
X141000388Y-114710374D01*
X140939222Y-114753204D01*
X140926550Y-114760988D01*
X140847389Y-114803300D01*
X140841342Y-114806324D01*
X140775471Y-114837041D01*
X140759060Y-114843320D01*
X140667768Y-114871013D01*
X140663866Y-114872127D01*
X140599199Y-114889454D01*
X140579259Y-114893082D01*
X140453616Y-114905456D01*
X140452276Y-114905581D01*
X140417260Y-114908646D01*
X140412892Y-114909028D01*
X140402084Y-114909500D01*
X138945934Y-114909500D01*
X138878895Y-114889815D01*
X138833140Y-114837011D01*
X138823196Y-114767853D01*
X138852221Y-114704297D01*
X138880657Y-114680073D01*
X138944322Y-114640653D01*
X138974306Y-114622088D01*
X139135301Y-114475322D01*
X139266586Y-114301472D01*
X139363691Y-114106459D01*
X139423309Y-113896923D01*
X139443410Y-113680000D01*
X139423309Y-113463077D01*
X139363691Y-113253541D01*
X139266586Y-113058528D01*
X139185125Y-112950656D01*
X139160434Y-112885297D01*
X139174999Y-112816962D01*
X139209769Y-112776665D01*
X139257419Y-112740993D01*
X139295420Y-112712546D01*
X139381670Y-112597331D01*
X139431965Y-112462483D01*
X139438374Y-112402873D01*
X139438373Y-110957128D01*
X139431965Y-110897517D01*
X139381670Y-110762669D01*
X139381669Y-110762668D01*
X139381667Y-110762664D01*
X139295421Y-110647455D01*
X139295418Y-110647452D01*
X139189335Y-110568038D01*
X139147464Y-110512105D01*
X139142480Y-110442413D01*
X139175966Y-110381090D01*
X139189330Y-110369508D01*
X139265423Y-110312546D01*
X139351673Y-110197331D01*
X139401968Y-110062483D01*
X139408377Y-110002873D01*
X139408376Y-108557128D01*
X139401968Y-108497517D01*
X139351673Y-108362669D01*
X139351672Y-108362668D01*
X139351670Y-108362664D01*
X139265424Y-108247455D01*
X139265421Y-108247452D01*
X139179772Y-108183335D01*
X139137901Y-108127402D01*
X139132917Y-108057710D01*
X139155128Y-108009344D01*
X139236589Y-107901472D01*
X139333694Y-107706459D01*
X139393312Y-107496923D01*
X139413413Y-107280000D01*
X139393312Y-107063077D01*
X139333694Y-106853541D01*
X139236589Y-106658528D01*
X139105304Y-106484678D01*
X138944309Y-106337912D01*
X138944305Y-106337909D01*
X138944300Y-106337906D01*
X138759090Y-106223229D01*
X138759084Y-106223226D01*
X138673990Y-106190260D01*
X138555946Y-106144530D01*
X138341803Y-106104500D01*
X138123951Y-106104500D01*
X137909808Y-106144530D01*
X137861007Y-106163435D01*
X137706669Y-106223226D01*
X137706663Y-106223229D01*
X137521453Y-106337906D01*
X137521443Y-106337913D01*
X137360451Y-106484676D01*
X137235677Y-106649903D01*
X137179568Y-106691539D01*
X137109856Y-106696230D01*
X137048674Y-106662488D01*
X137037769Y-106649903D01*
X136912995Y-106484676D01*
X136752003Y-106337913D01*
X136751993Y-106337906D01*
X136566783Y-106223229D01*
X136566777Y-106223226D01*
X136481683Y-106190260D01*
X136363639Y-106144530D01*
X136149496Y-106104500D01*
X135931644Y-106104500D01*
X135717501Y-106144530D01*
X135668700Y-106163435D01*
X135514362Y-106223226D01*
X135514356Y-106223229D01*
X135329146Y-106337906D01*
X135329136Y-106337913D01*
X135168144Y-106484676D01*
X135043370Y-106649903D01*
X134987261Y-106691539D01*
X134917549Y-106696230D01*
X134856367Y-106662488D01*
X134845462Y-106649903D01*
X134720688Y-106484676D01*
X134559696Y-106337913D01*
X134559686Y-106337906D01*
X134374476Y-106223229D01*
X134374470Y-106223226D01*
X134289376Y-106190260D01*
X134171332Y-106144530D01*
X133957189Y-106104500D01*
X133739337Y-106104500D01*
X133525194Y-106144530D01*
X133476393Y-106163435D01*
X133322055Y-106223226D01*
X133322049Y-106223229D01*
X133136839Y-106337906D01*
X133136829Y-106337913D01*
X132975837Y-106484676D01*
X132851063Y-106649903D01*
X132794954Y-106691539D01*
X132725242Y-106696230D01*
X132664060Y-106662488D01*
X132653155Y-106649903D01*
X132528381Y-106484676D01*
X132367389Y-106337913D01*
X132367379Y-106337906D01*
X132182169Y-106223229D01*
X132182163Y-106223226D01*
X132097069Y-106190260D01*
X131979025Y-106144530D01*
X131764882Y-106104500D01*
X131547030Y-106104500D01*
X131332887Y-106144530D01*
X131284086Y-106163435D01*
X131129748Y-106223226D01*
X131129742Y-106223229D01*
X130944532Y-106337906D01*
X130944522Y-106337913D01*
X130783530Y-106484676D01*
X130658756Y-106649903D01*
X130602647Y-106691539D01*
X130532935Y-106696230D01*
X130471753Y-106662488D01*
X130460848Y-106649903D01*
X130336074Y-106484676D01*
X130175082Y-106337913D01*
X130175072Y-106337906D01*
X129989862Y-106223229D01*
X129989856Y-106223226D01*
X129904762Y-106190260D01*
X129786718Y-106144530D01*
X129572575Y-106104500D01*
X129354723Y-106104500D01*
X129140580Y-106144530D01*
X129091779Y-106163435D01*
X128937441Y-106223226D01*
X128937435Y-106223229D01*
X128752225Y-106337906D01*
X128752215Y-106337913D01*
X128591223Y-106484676D01*
X128466449Y-106649903D01*
X128410340Y-106691539D01*
X128340628Y-106696230D01*
X128279446Y-106662488D01*
X128268541Y-106649903D01*
X128143767Y-106484676D01*
X127982775Y-106337913D01*
X127982765Y-106337906D01*
X127797555Y-106223229D01*
X127797549Y-106223226D01*
X127712455Y-106190260D01*
X127594411Y-106144530D01*
X127380268Y-106104500D01*
X127162416Y-106104500D01*
X126948273Y-106144530D01*
X126899472Y-106163435D01*
X126745134Y-106223226D01*
X126745128Y-106223229D01*
X126559918Y-106337906D01*
X126559908Y-106337913D01*
X126398916Y-106484676D01*
X126274142Y-106649903D01*
X126218033Y-106691539D01*
X126148321Y-106696230D01*
X126087139Y-106662488D01*
X126076234Y-106649903D01*
X125951460Y-106484676D01*
X125790468Y-106337913D01*
X125790458Y-106337906D01*
X125605248Y-106223229D01*
X125605242Y-106223226D01*
X125520148Y-106190260D01*
X125402104Y-106144530D01*
X125187961Y-106104500D01*
X124970109Y-106104500D01*
X124755966Y-106144530D01*
X124707165Y-106163435D01*
X124552827Y-106223226D01*
X124552821Y-106223229D01*
X124367611Y-106337906D01*
X124367601Y-106337913D01*
X124206609Y-106484676D01*
X124081835Y-106649903D01*
X124025726Y-106691539D01*
X123956014Y-106696230D01*
X123894832Y-106662488D01*
X123883927Y-106649903D01*
X123759153Y-106484676D01*
X123598161Y-106337913D01*
X123598151Y-106337906D01*
X123412941Y-106223229D01*
X123412935Y-106223226D01*
X123327841Y-106190260D01*
X123209797Y-106144530D01*
X122995654Y-106104500D01*
X122777802Y-106104500D01*
X122563659Y-106144530D01*
X122514858Y-106163435D01*
X122360520Y-106223226D01*
X122360514Y-106223229D01*
X122175304Y-106337906D01*
X122175294Y-106337913D01*
X122014302Y-106484676D01*
X121889528Y-106649903D01*
X121833419Y-106691539D01*
X121763707Y-106696230D01*
X121702525Y-106662488D01*
X121691620Y-106649903D01*
X121566846Y-106484676D01*
X121405854Y-106337913D01*
X121405844Y-106337906D01*
X121220634Y-106223229D01*
X121220628Y-106223226D01*
X121135534Y-106190260D01*
X121017490Y-106144530D01*
X120803347Y-106104500D01*
X120585495Y-106104500D01*
X120371352Y-106144530D01*
X120322551Y-106163435D01*
X120168213Y-106223226D01*
X120168207Y-106223229D01*
X119982997Y-106337906D01*
X119982987Y-106337913D01*
X119821995Y-106484676D01*
X119697221Y-106649903D01*
X119641112Y-106691539D01*
X119571400Y-106696230D01*
X119510218Y-106662488D01*
X119499313Y-106649903D01*
X119374539Y-106484676D01*
X119213547Y-106337913D01*
X119213537Y-106337906D01*
X119028327Y-106223229D01*
X119028321Y-106223226D01*
X118943227Y-106190260D01*
X118825183Y-106144530D01*
X118611040Y-106104500D01*
X118393188Y-106104500D01*
X118179045Y-106144530D01*
X118130244Y-106163435D01*
X117975906Y-106223226D01*
X117975900Y-106223229D01*
X117790690Y-106337906D01*
X117790680Y-106337913D01*
X117629688Y-106484676D01*
X117504914Y-106649903D01*
X117448805Y-106691539D01*
X117379093Y-106696230D01*
X117317911Y-106662488D01*
X117307006Y-106649903D01*
X117182232Y-106484676D01*
X117021240Y-106337913D01*
X117021230Y-106337906D01*
X116836020Y-106223229D01*
X116836014Y-106223226D01*
X116750920Y-106190260D01*
X116632876Y-106144530D01*
X116418733Y-106104500D01*
X116200881Y-106104500D01*
X115986738Y-106144530D01*
X115937937Y-106163435D01*
X115783599Y-106223226D01*
X115783593Y-106223229D01*
X115598383Y-106337906D01*
X115598373Y-106337913D01*
X115437381Y-106484676D01*
X115312607Y-106649903D01*
X115256498Y-106691539D01*
X115186786Y-106696230D01*
X115125604Y-106662488D01*
X115114699Y-106649903D01*
X114989925Y-106484676D01*
X114828933Y-106337913D01*
X114828923Y-106337906D01*
X114643713Y-106223229D01*
X114643707Y-106223226D01*
X114558613Y-106190260D01*
X114440569Y-106144530D01*
X114226426Y-106104500D01*
X114008574Y-106104500D01*
X113794431Y-106144530D01*
X113745630Y-106163435D01*
X113591292Y-106223226D01*
X113591286Y-106223229D01*
X113406076Y-106337906D01*
X113406066Y-106337913D01*
X113245074Y-106484676D01*
X113120300Y-106649903D01*
X113064191Y-106691539D01*
X112994479Y-106696230D01*
X112933297Y-106662488D01*
X112922392Y-106649903D01*
X112797618Y-106484676D01*
X112636626Y-106337913D01*
X112636616Y-106337906D01*
X112451406Y-106223229D01*
X112451400Y-106223226D01*
X112366306Y-106190260D01*
X112248262Y-106144530D01*
X112034119Y-106104500D01*
X111816267Y-106104500D01*
X111602124Y-106144530D01*
X111553323Y-106163435D01*
X111398985Y-106223226D01*
X111398979Y-106223229D01*
X111213769Y-106337906D01*
X111213759Y-106337913D01*
X111052767Y-106484676D01*
X110927993Y-106649903D01*
X110871884Y-106691539D01*
X110802172Y-106696230D01*
X110740990Y-106662488D01*
X110730085Y-106649903D01*
X110605311Y-106484676D01*
X110444319Y-106337913D01*
X110444309Y-106337906D01*
X110259099Y-106223229D01*
X110259093Y-106223226D01*
X110173999Y-106190260D01*
X110055955Y-106144530D01*
X109841812Y-106104500D01*
X109623960Y-106104500D01*
X109409817Y-106144530D01*
X109361016Y-106163435D01*
X109206678Y-106223226D01*
X109206672Y-106223229D01*
X109021462Y-106337906D01*
X109021452Y-106337913D01*
X108860460Y-106484676D01*
X108729174Y-106658527D01*
X108632070Y-106853537D01*
X108572450Y-107063081D01*
X108552350Y-107279999D01*
X108552350Y-107280000D01*
X108572450Y-107496918D01*
X108632070Y-107706462D01*
X108729174Y-107901472D01*
X108810633Y-108009341D01*
X108835325Y-108074702D01*
X108820760Y-108143037D01*
X108785991Y-108183334D01*
X108700338Y-108247455D01*
X108614092Y-108362664D01*
X108614088Y-108362671D01*
X108563794Y-108497517D01*
X108557387Y-108557116D01*
X108557387Y-108557123D01*
X108557386Y-108557135D01*
X108557386Y-110002870D01*
X108557387Y-110002876D01*
X108563794Y-110062483D01*
X108614088Y-110197328D01*
X108614092Y-110197335D01*
X108700338Y-110312544D01*
X108700341Y-110312547D01*
X108801426Y-110388220D01*
X108843297Y-110444154D01*
X108848281Y-110513845D01*
X108814795Y-110575168D01*
X108801427Y-110586752D01*
X108720338Y-110647455D01*
X108634092Y-110762664D01*
X108634088Y-110762671D01*
X108583794Y-110897517D01*
X108577387Y-110957116D01*
X108577387Y-110957123D01*
X108577386Y-110957135D01*
X108577386Y-112402870D01*
X108577387Y-112402876D01*
X108583794Y-112462483D01*
X108634088Y-112597328D01*
X108634092Y-112597335D01*
X108656347Y-112627063D01*
X108720340Y-112712546D01*
X108805991Y-112776664D01*
X108847861Y-112832597D01*
X108852845Y-112902289D01*
X108830634Y-112950656D01*
X108749174Y-113058528D01*
X108652070Y-113253537D01*
X108592450Y-113463081D01*
X108572350Y-113679999D01*
X108572350Y-113680000D01*
X108592450Y-113896918D01*
X108592450Y-113896920D01*
X108592451Y-113896923D01*
X108608912Y-113954776D01*
X108652070Y-114106462D01*
X108683809Y-114170202D01*
X108749174Y-114301472D01*
X108880457Y-114475320D01*
X108880460Y-114475323D01*
X108918967Y-114510427D01*
X109041454Y-114622088D01*
X109041461Y-114622092D01*
X109041462Y-114622093D01*
X109135103Y-114680073D01*
X109181739Y-114732101D01*
X109192843Y-114801082D01*
X109164890Y-114865117D01*
X109106755Y-114903873D01*
X109069826Y-114909500D01*
X107412916Y-114909500D01*
X107402106Y-114909028D01*
X107399501Y-114908800D01*
X107362723Y-114905581D01*
X107361382Y-114905456D01*
X107235739Y-114893082D01*
X107215799Y-114889454D01*
X107151132Y-114872127D01*
X107147230Y-114871013D01*
X107055938Y-114843320D01*
X107039527Y-114837041D01*
X106973656Y-114806324D01*
X106967609Y-114803300D01*
X106888448Y-114760988D01*
X106875781Y-114753207D01*
X106845639Y-114732101D01*
X106814610Y-114710374D01*
X106807071Y-114704654D01*
X106739043Y-114648826D01*
X106730026Y-114640653D01*
X106676845Y-114587472D01*
X106668672Y-114578455D01*
X106612844Y-114510427D01*
X106607124Y-114502888D01*
X106595337Y-114486055D01*
X106564286Y-114441709D01*
X106556510Y-114429050D01*
X106514198Y-114349889D01*
X106511174Y-114343842D01*
X106506792Y-114334445D01*
X106480452Y-114277959D01*
X106474181Y-114261570D01*
X106446466Y-114170202D01*
X106445390Y-114166435D01*
X106428041Y-114101687D01*
X106424418Y-114081773D01*
X106412026Y-113955961D01*
X106411917Y-113954776D01*
X106408472Y-113915391D01*
X106408000Y-113904586D01*
X106408000Y-102970000D01*
X110346841Y-102970000D01*
X110367436Y-103205403D01*
X110367438Y-103205413D01*
X110428594Y-103433655D01*
X110428596Y-103433659D01*
X110428597Y-103433663D01*
X110512999Y-103614663D01*
X110528465Y-103647830D01*
X110528467Y-103647834D01*
X110636781Y-103802521D01*
X110664005Y-103841401D01*
X110831099Y-104008495D01*
X110927884Y-104076265D01*
X111024665Y-104144032D01*
X111024667Y-104144033D01*
X111024670Y-104144035D01*
X111238837Y-104243903D01*
X111467092Y-104305063D01*
X111643534Y-104320500D01*
X111702499Y-104325659D01*
X111702500Y-104325659D01*
X111702501Y-104325659D01*
X111761466Y-104320500D01*
X111937908Y-104305063D01*
X112166163Y-104243903D01*
X112380330Y-104144035D01*
X112573901Y-104008495D01*
X112695829Y-103886566D01*
X112757148Y-103853084D01*
X112826840Y-103858068D01*
X112882774Y-103899939D01*
X112899689Y-103930917D01*
X112948702Y-104062328D01*
X112948706Y-104062335D01*
X113034952Y-104177544D01*
X113034955Y-104177547D01*
X113150164Y-104263793D01*
X113150171Y-104263797D01*
X113285017Y-104314091D01*
X113285016Y-104314091D01*
X113291944Y-104314835D01*
X113344627Y-104320500D01*
X115140372Y-104320499D01*
X115199983Y-104314091D01*
X115334831Y-104263796D01*
X115450046Y-104177546D01*
X115536296Y-104062331D01*
X115586591Y-103927483D01*
X115593000Y-103867873D01*
X115592999Y-102320002D01*
X133772251Y-102320002D01*
X133791185Y-102488056D01*
X133847045Y-102647694D01*
X133847047Y-102647697D01*
X133937018Y-102790884D01*
X133937023Y-102790890D01*
X134056609Y-102910476D01*
X134056615Y-102910481D01*
X134199802Y-103000452D01*
X134199807Y-103000455D01*
X134303549Y-103036755D01*
X134350276Y-103066116D01*
X134357275Y-103073115D01*
X134360787Y-103075839D01*
X134369666Y-103083423D01*
X134393870Y-103106152D01*
X134403085Y-103114805D01*
X134421790Y-103125088D01*
X134438041Y-103135763D01*
X134454906Y-103148845D01*
X134496992Y-103167057D01*
X134507466Y-103172189D01*
X134513498Y-103175505D01*
X134547638Y-103194275D01*
X134547640Y-103194275D01*
X134547641Y-103194276D01*
X134558836Y-103197150D01*
X134568307Y-103199582D01*
X134586719Y-103205885D01*
X134606299Y-103214359D01*
X134651586Y-103221530D01*
X134663012Y-103223897D01*
X134707420Y-103235300D01*
X134728761Y-103235300D01*
X134748158Y-103236826D01*
X134769227Y-103240163D01*
X134769228Y-103240164D01*
X134769228Y-103240163D01*
X134769229Y-103240164D01*
X134814870Y-103235849D01*
X134826538Y-103235300D01*
X138629332Y-103235300D01*
X138645379Y-103237071D01*
X138645402Y-103236834D01*
X138653168Y-103237568D01*
X138653168Y-103237567D01*
X138653169Y-103237568D01*
X138684501Y-103236583D01*
X138723405Y-103235361D01*
X138727299Y-103235300D01*
X138756171Y-103235300D01*
X138756175Y-103235300D01*
X138760571Y-103234744D01*
X138772218Y-103233826D01*
X138818048Y-103232387D01*
X138838549Y-103226430D01*
X138857576Y-103222489D01*
X138878760Y-103219814D01*
X138921385Y-103202936D01*
X138932428Y-103199156D01*
X138976459Y-103186365D01*
X138994830Y-103175500D01*
X139012296Y-103166943D01*
X139032137Y-103159088D01*
X139069223Y-103132142D01*
X139078988Y-103125728D01*
X139097458Y-103114805D01*
X139118448Y-103102392D01*
X139133543Y-103087295D01*
X139148320Y-103074674D01*
X139165593Y-103062126D01*
X139165596Y-103062121D01*
X139167643Y-103060635D01*
X139199570Y-103043913D01*
X139295190Y-103010456D01*
X139295193Y-103010453D01*
X139295197Y-103010452D01*
X139438384Y-102920481D01*
X139438385Y-102920480D01*
X139438390Y-102920477D01*
X139557977Y-102800890D01*
X139557981Y-102800884D01*
X139647952Y-102657697D01*
X139647954Y-102657694D01*
X139647954Y-102657692D01*
X139647956Y-102657690D01*
X139703813Y-102498059D01*
X139703813Y-102498058D01*
X139703814Y-102498056D01*
X139722749Y-102330002D01*
X139722749Y-102329997D01*
X139703814Y-102161943D01*
X139669898Y-102065016D01*
X139647956Y-102002310D01*
X139647955Y-102002309D01*
X139647954Y-102002305D01*
X139647952Y-102002302D01*
X139557981Y-101859115D01*
X139557976Y-101859109D01*
X139438390Y-101739523D01*
X139438384Y-101739518D01*
X139295197Y-101649547D01*
X139295194Y-101649545D01*
X139135556Y-101593685D01*
X138967503Y-101574751D01*
X138967497Y-101574751D01*
X138799443Y-101593685D01*
X138639805Y-101649545D01*
X138639802Y-101649547D01*
X138496615Y-101739518D01*
X138496609Y-101739523D01*
X138377023Y-101859109D01*
X138377021Y-101859112D01*
X138369256Y-101871471D01*
X138316922Y-101917763D01*
X138264262Y-101929500D01*
X135237022Y-101929500D01*
X135169983Y-101909815D01*
X135132028Y-101871471D01*
X135117980Y-101849114D01*
X135117978Y-101849111D01*
X134998390Y-101729523D01*
X134998384Y-101729518D01*
X134855197Y-101639547D01*
X134855194Y-101639545D01*
X134695556Y-101583685D01*
X134527503Y-101564751D01*
X134527497Y-101564751D01*
X134359443Y-101583685D01*
X134199805Y-101639545D01*
X134199802Y-101639547D01*
X134056615Y-101729518D01*
X134056609Y-101729523D01*
X133937023Y-101849109D01*
X133937018Y-101849115D01*
X133847047Y-101992302D01*
X133847045Y-101992305D01*
X133791185Y-102151943D01*
X133772251Y-102319997D01*
X133772251Y-102320002D01*
X115592999Y-102320002D01*
X115592999Y-102072128D01*
X115586591Y-102012517D01*
X115585310Y-102009083D01*
X115536297Y-101877671D01*
X115536293Y-101877664D01*
X115450047Y-101762455D01*
X115450044Y-101762452D01*
X115334835Y-101676206D01*
X115334828Y-101676202D01*
X115199982Y-101625908D01*
X115199983Y-101625908D01*
X115140383Y-101619501D01*
X115140381Y-101619500D01*
X115140373Y-101619500D01*
X115140364Y-101619500D01*
X113344629Y-101619500D01*
X113344623Y-101619501D01*
X113285016Y-101625908D01*
X113150171Y-101676202D01*
X113150164Y-101676206D01*
X113034955Y-101762452D01*
X113034952Y-101762455D01*
X112948706Y-101877664D01*
X112948703Y-101877669D01*
X112899689Y-102009083D01*
X112857817Y-102065016D01*
X112792353Y-102089433D01*
X112724080Y-102074581D01*
X112695826Y-102053430D01*
X112573902Y-101931506D01*
X112573895Y-101931501D01*
X112571037Y-101929500D01*
X112497018Y-101877671D01*
X112380334Y-101795967D01*
X112380330Y-101795965D01*
X112380328Y-101795964D01*
X112166163Y-101696097D01*
X112166159Y-101696096D01*
X112166155Y-101696094D01*
X111937913Y-101634938D01*
X111937903Y-101634936D01*
X111702501Y-101614341D01*
X111702499Y-101614341D01*
X111467096Y-101634936D01*
X111467086Y-101634938D01*
X111238844Y-101696094D01*
X111238835Y-101696098D01*
X111024671Y-101795964D01*
X111024669Y-101795965D01*
X110831097Y-101931505D01*
X110664005Y-102098597D01*
X110528465Y-102292169D01*
X110528464Y-102292171D01*
X110428598Y-102506335D01*
X110428594Y-102506344D01*
X110367438Y-102734586D01*
X110367436Y-102734596D01*
X110346841Y-102969999D01*
X110346841Y-102970000D01*
X106408000Y-102970000D01*
X106408000Y-94190002D01*
X110262251Y-94190002D01*
X110281185Y-94358056D01*
X110337045Y-94517694D01*
X110337047Y-94517697D01*
X110427018Y-94660884D01*
X110427023Y-94660890D01*
X110534002Y-94767869D01*
X110567487Y-94829192D01*
X110562503Y-94898884D01*
X110534002Y-94943231D01*
X110458123Y-95019109D01*
X110458118Y-95019115D01*
X110368147Y-95162302D01*
X110368145Y-95162305D01*
X110312285Y-95321943D01*
X110293351Y-95489997D01*
X110293351Y-95490002D01*
X110312285Y-95658056D01*
X110368145Y-95817694D01*
X110368147Y-95817697D01*
X110458118Y-95960884D01*
X110458123Y-95960890D01*
X110577709Y-96080476D01*
X110577715Y-96080481D01*
X110720902Y-96170452D01*
X110720905Y-96170454D01*
X110720909Y-96170455D01*
X110720910Y-96170456D01*
X110793513Y-96195860D01*
X110880543Y-96226314D01*
X111048597Y-96245249D01*
X111048600Y-96245249D01*
X111048603Y-96245249D01*
X111216656Y-96226314D01*
X111219700Y-96225249D01*
X111376290Y-96170456D01*
X111519490Y-96080477D01*
X111519489Y-96080477D01*
X111522786Y-96078406D01*
X111588758Y-96059400D01*
X111719172Y-96059400D01*
X111785145Y-96078407D01*
X111899807Y-96150454D01*
X111899805Y-96150454D01*
X111899809Y-96150455D01*
X111899810Y-96150456D01*
X111956956Y-96170452D01*
X112059443Y-96206314D01*
X112227497Y-96225249D01*
X112227500Y-96225249D01*
X112227503Y-96225249D01*
X112395556Y-96206314D01*
X112395559Y-96206313D01*
X112555190Y-96150456D01*
X112555192Y-96150454D01*
X112555194Y-96150454D01*
X112555197Y-96150452D01*
X112698384Y-96060481D01*
X112698385Y-96060480D01*
X112698390Y-96060477D01*
X112817977Y-95940890D01*
X112851406Y-95887689D01*
X112907952Y-95797697D01*
X112907954Y-95797694D01*
X112907954Y-95797692D01*
X112907956Y-95797690D01*
X112963813Y-95638059D01*
X112963813Y-95638058D01*
X112963814Y-95638056D01*
X112972609Y-95560002D01*
X129452251Y-95560002D01*
X129471186Y-95728057D01*
X129527042Y-95887686D01*
X129527043Y-95887687D01*
X129527044Y-95887690D01*
X129535592Y-95901293D01*
X129554600Y-95967268D01*
X129554600Y-96424232D01*
X129552828Y-96440279D01*
X129553066Y-96440302D01*
X129552332Y-96448067D01*
X129554539Y-96518303D01*
X129554600Y-96522198D01*
X129554600Y-96551075D01*
X129555157Y-96555488D01*
X129556072Y-96567120D01*
X129557512Y-96612945D01*
X129557513Y-96612951D01*
X129563465Y-96633438D01*
X129567410Y-96652483D01*
X129570085Y-96673657D01*
X129570088Y-96673669D01*
X129586962Y-96716289D01*
X129590745Y-96727337D01*
X129603533Y-96771355D01*
X129603535Y-96771360D01*
X129614400Y-96789731D01*
X129622958Y-96807201D01*
X129630811Y-96827035D01*
X129630815Y-96827041D01*
X129657756Y-96864123D01*
X129664169Y-96873885D01*
X129687509Y-96913350D01*
X129702594Y-96928434D01*
X129715234Y-96943233D01*
X129727774Y-96960494D01*
X129763101Y-96989719D01*
X129771741Y-96997581D01*
X129961383Y-97187223D01*
X129990744Y-97233950D01*
X130027044Y-97337693D01*
X130117018Y-97480884D01*
X130117023Y-97480890D01*
X130236609Y-97600476D01*
X130236615Y-97600481D01*
X130379802Y-97690452D01*
X130379805Y-97690454D01*
X130379809Y-97690455D01*
X130379810Y-97690456D01*
X130452413Y-97715860D01*
X130539443Y-97746314D01*
X130707497Y-97765249D01*
X130707500Y-97765249D01*
X130707503Y-97765249D01*
X130875556Y-97746314D01*
X130875559Y-97746313D01*
X131035190Y-97690456D01*
X131035192Y-97690454D01*
X131035194Y-97690454D01*
X131035197Y-97690452D01*
X131178384Y-97600481D01*
X131178385Y-97600480D01*
X131178390Y-97600477D01*
X131297977Y-97480890D01*
X131318415Y-97448363D01*
X131387952Y-97337697D01*
X131387954Y-97337694D01*
X131387954Y-97337692D01*
X131387956Y-97337690D01*
X131443813Y-97178059D01*
X131443813Y-97178058D01*
X131443814Y-97178056D01*
X131462749Y-97010002D01*
X131462749Y-97009997D01*
X131443813Y-96841940D01*
X131443813Y-96841938D01*
X131417365Y-96766355D01*
X131413803Y-96696576D01*
X131448531Y-96635949D01*
X131510525Y-96603721D01*
X131534406Y-96601400D01*
X135086501Y-96601400D01*
X135153540Y-96621085D01*
X135174182Y-96637719D01*
X135948162Y-97411699D01*
X135958855Y-97423892D01*
X135977633Y-97448363D01*
X135977635Y-97448365D01*
X136045858Y-97500714D01*
X136045859Y-97500716D01*
X136100756Y-97542839D01*
X136100758Y-97542841D01*
X136191168Y-97580289D01*
X136244136Y-97602229D01*
X136367428Y-97618461D01*
X136397999Y-97622486D01*
X136398000Y-97622486D01*
X136398001Y-97622486D01*
X136428572Y-97618461D01*
X136444758Y-97617400D01*
X137870887Y-97617400D01*
X137937926Y-97637085D01*
X137958568Y-97653719D01*
X138225714Y-97920865D01*
X138259199Y-97982188D01*
X138261253Y-97994661D01*
X138265389Y-98031371D01*
X138321248Y-98191010D01*
X138321251Y-98191015D01*
X138411222Y-98334202D01*
X138411227Y-98334208D01*
X138530813Y-98453794D01*
X138530819Y-98453799D01*
X138674006Y-98543770D01*
X138674009Y-98543772D01*
X138674013Y-98543773D01*
X138674014Y-98543774D01*
X138746617Y-98569178D01*
X138833647Y-98599632D01*
X139001701Y-98618567D01*
X139001704Y-98618567D01*
X139001707Y-98618567D01*
X139169760Y-98599632D01*
X139169763Y-98599631D01*
X139329394Y-98543774D01*
X139329396Y-98543772D01*
X139329398Y-98543772D01*
X139329401Y-98543770D01*
X139472588Y-98453799D01*
X139472589Y-98453798D01*
X139472594Y-98453795D01*
X139592181Y-98334208D01*
X139682156Y-98191015D01*
X139682158Y-98191012D01*
X139682158Y-98191010D01*
X139682160Y-98191008D01*
X139738017Y-98031377D01*
X139738017Y-98031376D01*
X139738018Y-98031374D01*
X139756953Y-97863320D01*
X139756953Y-97863315D01*
X139738018Y-97695261D01*
X139704853Y-97600481D01*
X139682160Y-97535628D01*
X139682159Y-97535627D01*
X139682158Y-97535623D01*
X139682156Y-97535620D01*
X139592185Y-97392433D01*
X139592180Y-97392427D01*
X139472594Y-97272841D01*
X139472588Y-97272836D01*
X139329401Y-97182865D01*
X139329396Y-97182862D01*
X139169757Y-97127003D01*
X139133047Y-97122867D01*
X139068633Y-97095800D01*
X139059251Y-97087328D01*
X138616220Y-96644297D01*
X138605524Y-96632101D01*
X138586750Y-96607634D01*
X138463629Y-96513160D01*
X138463627Y-96513158D01*
X138320253Y-96453772D01*
X138320251Y-96453771D01*
X138320250Y-96453771D01*
X138205017Y-96438600D01*
X138196958Y-96437539D01*
X138166387Y-96433514D01*
X138166385Y-96433514D01*
X138135814Y-96437539D01*
X138119628Y-96438600D01*
X137845889Y-96438600D01*
X137778850Y-96418915D01*
X137733095Y-96366111D01*
X137723663Y-96306964D01*
X137722749Y-96306964D01*
X137722749Y-96301229D01*
X137722668Y-96300722D01*
X137722749Y-96300002D01*
X137722749Y-96299997D01*
X137703814Y-96131943D01*
X137647954Y-95972305D01*
X137647952Y-95972302D01*
X137557981Y-95829115D01*
X137557976Y-95829109D01*
X137438389Y-95709522D01*
X137368787Y-95665788D01*
X137347078Y-95648475D01*
X136416998Y-94718395D01*
X136405216Y-94704762D01*
X136391441Y-94686259D01*
X136391440Y-94686258D01*
X136391438Y-94686255D01*
X136354688Y-94655418D01*
X136346713Y-94648110D01*
X136343023Y-94644420D01*
X136319452Y-94625782D01*
X136316659Y-94623507D01*
X136260873Y-94576698D01*
X136254843Y-94572732D01*
X136254892Y-94572657D01*
X136249062Y-94568942D01*
X136249015Y-94569020D01*
X136242862Y-94565225D01*
X136176877Y-94534455D01*
X136173631Y-94532884D01*
X136108562Y-94500204D01*
X136101781Y-94497736D01*
X136101811Y-94497652D01*
X136095279Y-94495381D01*
X136095251Y-94495467D01*
X136088397Y-94493196D01*
X136017097Y-94478473D01*
X136013580Y-94477693D01*
X135942717Y-94460899D01*
X135935545Y-94460061D01*
X135935555Y-94459969D01*
X135928681Y-94459267D01*
X135928673Y-94459359D01*
X135921482Y-94458729D01*
X135848684Y-94460848D01*
X135845078Y-94460900D01*
X134957242Y-94460900D01*
X134922406Y-94454981D01*
X134922348Y-94455236D01*
X134917812Y-94454200D01*
X134916289Y-94453942D01*
X134915558Y-94453686D01*
X134747503Y-94434751D01*
X134747497Y-94434751D01*
X134579443Y-94453685D01*
X134419805Y-94509545D01*
X134419802Y-94509547D01*
X134276615Y-94599518D01*
X134276609Y-94599523D01*
X134157023Y-94719109D01*
X134157018Y-94719115D01*
X134067047Y-94862302D01*
X134067045Y-94862305D01*
X134011185Y-95021943D01*
X133992251Y-95189997D01*
X133992251Y-95190002D01*
X134002923Y-95284716D01*
X133990869Y-95353538D01*
X133943520Y-95404917D01*
X133879703Y-95422600D01*
X131360740Y-95422600D01*
X131293701Y-95402915D01*
X131283423Y-95395544D01*
X131280894Y-95393527D01*
X131280890Y-95393523D01*
X131280884Y-95393519D01*
X131280880Y-95393516D01*
X131137697Y-95303547D01*
X131137694Y-95303545D01*
X130978055Y-95247685D01*
X130950828Y-95244618D01*
X130886414Y-95217551D01*
X130859718Y-95187370D01*
X130843972Y-95162310D01*
X130797977Y-95089110D01*
X130678390Y-94969523D01*
X130678384Y-94969518D01*
X130535197Y-94879547D01*
X130535194Y-94879545D01*
X130375556Y-94823685D01*
X130207503Y-94804751D01*
X130207497Y-94804751D01*
X130039443Y-94823685D01*
X129879805Y-94879545D01*
X129879802Y-94879547D01*
X129736615Y-94969518D01*
X129736609Y-94969523D01*
X129617023Y-95089109D01*
X129617018Y-95089115D01*
X129527047Y-95232302D01*
X129527045Y-95232305D01*
X129471185Y-95391943D01*
X129452251Y-95559997D01*
X129452251Y-95560002D01*
X112972609Y-95560002D01*
X112982749Y-95470002D01*
X112982749Y-95469997D01*
X112963814Y-95301943D01*
X112914954Y-95162310D01*
X112907956Y-95142310D01*
X112907954Y-95142307D01*
X112907954Y-95142306D01*
X112879831Y-95097549D01*
X112860830Y-95030312D01*
X112881197Y-94963477D01*
X112934465Y-94918262D01*
X113003721Y-94909024D01*
X113025779Y-94914535D01*
X113059439Y-94926313D01*
X113227497Y-94945249D01*
X113227500Y-94945249D01*
X113227503Y-94945249D01*
X113395556Y-94926314D01*
X113395559Y-94926313D01*
X113555190Y-94870456D01*
X113555192Y-94870454D01*
X113555194Y-94870454D01*
X113555197Y-94870452D01*
X113698384Y-94780481D01*
X113698385Y-94780480D01*
X113698390Y-94780477D01*
X113817977Y-94660890D01*
X113817981Y-94660884D01*
X113907952Y-94517697D01*
X113907954Y-94517694D01*
X113907954Y-94517692D01*
X113907956Y-94517690D01*
X113963813Y-94358059D01*
X113963813Y-94358058D01*
X113963814Y-94358056D01*
X113982749Y-94190002D01*
X113982749Y-94189997D01*
X113963814Y-94021943D01*
X113914961Y-93882330D01*
X113907956Y-93862310D01*
X113907955Y-93862309D01*
X113907954Y-93862305D01*
X113907952Y-93862302D01*
X113817981Y-93719115D01*
X113817976Y-93719109D01*
X113698390Y-93599523D01*
X113698384Y-93599518D01*
X113555197Y-93509547D01*
X113555194Y-93509545D01*
X113395556Y-93453685D01*
X113227503Y-93434751D01*
X113227497Y-93434751D01*
X113059443Y-93453685D01*
X112899809Y-93509544D01*
X112891398Y-93514829D01*
X112886203Y-93518093D01*
X112820231Y-93537100D01*
X111424769Y-93537100D01*
X111358796Y-93518093D01*
X111345190Y-93509544D01*
X111185556Y-93453685D01*
X111017503Y-93434751D01*
X111017497Y-93434751D01*
X110849443Y-93453685D01*
X110689805Y-93509545D01*
X110689802Y-93509547D01*
X110546615Y-93599518D01*
X110546609Y-93599523D01*
X110427023Y-93719109D01*
X110427018Y-93719115D01*
X110337047Y-93862302D01*
X110337045Y-93862305D01*
X110281185Y-94021943D01*
X110262251Y-94189997D01*
X110262251Y-94190002D01*
X106408000Y-94190002D01*
X106408000Y-93320002D01*
X116943351Y-93320002D01*
X116962285Y-93488056D01*
X117018145Y-93647694D01*
X117018147Y-93647697D01*
X117108118Y-93790884D01*
X117108123Y-93790890D01*
X117227709Y-93910476D01*
X117227715Y-93910481D01*
X117370902Y-94000452D01*
X117370905Y-94000454D01*
X117370909Y-94000455D01*
X117370910Y-94000456D01*
X117432311Y-94021941D01*
X117530543Y-94056314D01*
X117698597Y-94075249D01*
X117698600Y-94075249D01*
X117698603Y-94075249D01*
X117866656Y-94056314D01*
X117866659Y-94056313D01*
X118026290Y-94000456D01*
X118053417Y-93983411D01*
X118063738Y-93977594D01*
X118066939Y-93975985D01*
X118066947Y-93975983D01*
X118102528Y-93952579D01*
X118104505Y-93951308D01*
X118169490Y-93910477D01*
X118169492Y-93910474D01*
X118174825Y-93907124D01*
X118177499Y-93905243D01*
X118192792Y-93895811D01*
X118192801Y-93895801D01*
X118198458Y-93891330D01*
X118198516Y-93891403D01*
X118203871Y-93887041D01*
X118203812Y-93886970D01*
X118209341Y-93882330D01*
X118209343Y-93882327D01*
X118209347Y-93882325D01*
X118259361Y-93829311D01*
X118261810Y-93826792D01*
X118353186Y-93735418D01*
X118414509Y-93701934D01*
X118440866Y-93699100D01*
X119537758Y-93699100D01*
X119572593Y-93705018D01*
X119572652Y-93704764D01*
X119577187Y-93705799D01*
X119578711Y-93706058D01*
X119579441Y-93706313D01*
X119747497Y-93725249D01*
X119747500Y-93725249D01*
X119747503Y-93725249D01*
X119915556Y-93706314D01*
X119919986Y-93704764D01*
X120075190Y-93650456D01*
X120075192Y-93650454D01*
X120075194Y-93650454D01*
X120075197Y-93650452D01*
X120218384Y-93560481D01*
X120218385Y-93560480D01*
X120218390Y-93560477D01*
X120337977Y-93440890D01*
X120337981Y-93440884D01*
X120427952Y-93297697D01*
X120427954Y-93297694D01*
X120427954Y-93297692D01*
X120427956Y-93297690D01*
X120483813Y-93138059D01*
X120483813Y-93138058D01*
X120483814Y-93138056D01*
X120502749Y-92970002D01*
X120502749Y-92969997D01*
X120483813Y-92801941D01*
X120483558Y-92801211D01*
X120483299Y-92799687D01*
X120482264Y-92795152D01*
X120482518Y-92795093D01*
X120476600Y-92760258D01*
X120476600Y-92727549D01*
X122121370Y-92727549D01*
X122140304Y-92895603D01*
X122196164Y-93055241D01*
X122196166Y-93055244D01*
X122286137Y-93198431D01*
X122286142Y-93198437D01*
X122405728Y-93318023D01*
X122405734Y-93318028D01*
X122548921Y-93407999D01*
X122548924Y-93408001D01*
X122548928Y-93408002D01*
X122548929Y-93408003D01*
X122621532Y-93433407D01*
X122708562Y-93463861D01*
X122876616Y-93482796D01*
X122876619Y-93482796D01*
X122876622Y-93482796D01*
X123044675Y-93463861D01*
X123044678Y-93463860D01*
X123204309Y-93408003D01*
X123318974Y-93335954D01*
X123384947Y-93316947D01*
X124909547Y-93316947D01*
X124976586Y-93336632D01*
X124997228Y-93353266D01*
X125006666Y-93362704D01*
X125023979Y-93384413D01*
X125078122Y-93470581D01*
X125197709Y-93590168D01*
X125197715Y-93590173D01*
X125340902Y-93680144D01*
X125340905Y-93680146D01*
X125340909Y-93680147D01*
X125340910Y-93680148D01*
X125395072Y-93699100D01*
X125500543Y-93736006D01*
X125668597Y-93754941D01*
X125668600Y-93754941D01*
X125668603Y-93754941D01*
X125836656Y-93736006D01*
X125836659Y-93736005D01*
X125996290Y-93680148D01*
X125996292Y-93680146D01*
X125996294Y-93680146D01*
X125996297Y-93680144D01*
X126139484Y-93590173D01*
X126139485Y-93590172D01*
X126139490Y-93590169D01*
X126259077Y-93470582D01*
X126277738Y-93440884D01*
X126349052Y-93327389D01*
X126349054Y-93327386D01*
X126349054Y-93327384D01*
X126349056Y-93327382D01*
X126404913Y-93167751D01*
X126404913Y-93167750D01*
X126404914Y-93167748D01*
X126423849Y-92999694D01*
X126423849Y-92999689D01*
X126404914Y-92831635D01*
X126349054Y-92671997D01*
X126349052Y-92671994D01*
X126259081Y-92528807D01*
X126259076Y-92528801D01*
X126139490Y-92409215D01*
X126139484Y-92409210D01*
X125996297Y-92319239D01*
X125996294Y-92319237D01*
X125836656Y-92263377D01*
X125668603Y-92244443D01*
X125668596Y-92244443D01*
X125609341Y-92251119D01*
X125540519Y-92239064D01*
X125519971Y-92226274D01*
X125502291Y-92212707D01*
X125502288Y-92212705D01*
X125358914Y-92153319D01*
X125358912Y-92153318D01*
X125358911Y-92153318D01*
X125243678Y-92138147D01*
X125235460Y-92137065D01*
X125205048Y-92133061D01*
X125205046Y-92133061D01*
X125177618Y-92136672D01*
X125174597Y-92137070D01*
X125174475Y-92137086D01*
X125158289Y-92138147D01*
X123384947Y-92138147D01*
X123318974Y-92119140D01*
X123204311Y-92047092D01*
X123204313Y-92047092D01*
X123044675Y-91991232D01*
X122876622Y-91972298D01*
X122876616Y-91972298D01*
X122708562Y-91991232D01*
X122548924Y-92047092D01*
X122548921Y-92047094D01*
X122405734Y-92137065D01*
X122405728Y-92137070D01*
X122286142Y-92256656D01*
X122286137Y-92256662D01*
X122196166Y-92399849D01*
X122196164Y-92399852D01*
X122140304Y-92559490D01*
X122121370Y-92727544D01*
X122121370Y-92727549D01*
X120476600Y-92727549D01*
X120476600Y-88508395D01*
X120493213Y-88446395D01*
X120514053Y-88410299D01*
X120580095Y-88295911D01*
X120638590Y-88115883D01*
X120658376Y-87927627D01*
X120638590Y-87739371D01*
X120580095Y-87559343D01*
X120534687Y-87480694D01*
X120493213Y-87408858D01*
X120476600Y-87346858D01*
X120476600Y-85431386D01*
X120493212Y-85369388D01*
X120574679Y-85228284D01*
X120633174Y-85048256D01*
X120652960Y-84860000D01*
X120633174Y-84671744D01*
X120574679Y-84491716D01*
X120480033Y-84327784D01*
X120353371Y-84187112D01*
X120340911Y-84178059D01*
X120200234Y-84075851D01*
X120200229Y-84075848D01*
X120029879Y-84000002D01*
X128342251Y-84000002D01*
X128361185Y-84168056D01*
X128417045Y-84327694D01*
X128417047Y-84327697D01*
X128507018Y-84470884D01*
X128507023Y-84470890D01*
X128626610Y-84590477D01*
X128696212Y-84634211D01*
X128717920Y-84651523D01*
X129561055Y-85494658D01*
X129594540Y-85555981D01*
X129597374Y-85582339D01*
X129597374Y-88068819D01*
X129596594Y-88082703D01*
X129582251Y-88209997D01*
X129582251Y-88210002D01*
X129596594Y-88337295D01*
X129597374Y-88351179D01*
X129597374Y-89947396D01*
X129577689Y-90014435D01*
X129561056Y-90035077D01*
X129467018Y-90129115D01*
X129377047Y-90272302D01*
X129377045Y-90272305D01*
X129321185Y-90431943D01*
X129302251Y-90599997D01*
X129302251Y-90600002D01*
X129321185Y-90768056D01*
X129377045Y-90927694D01*
X129377047Y-90927697D01*
X129467018Y-91070884D01*
X129467023Y-91070890D01*
X129586609Y-91190476D01*
X129586615Y-91190481D01*
X129729802Y-91280452D01*
X129729805Y-91280454D01*
X129729809Y-91280455D01*
X129729810Y-91280456D01*
X129750224Y-91287599D01*
X129889443Y-91336314D01*
X130057497Y-91355249D01*
X130057500Y-91355249D01*
X130057503Y-91355249D01*
X130225556Y-91336314D01*
X130238048Y-91331943D01*
X130385190Y-91280456D01*
X130385192Y-91280454D01*
X130385194Y-91280454D01*
X130385197Y-91280452D01*
X130528384Y-91190481D01*
X130528385Y-91190480D01*
X130528390Y-91190477D01*
X130647977Y-91070890D01*
X130691711Y-91001286D01*
X130709020Y-90979581D01*
X130798085Y-90890516D01*
X130811704Y-90878746D01*
X130830219Y-90864964D01*
X130861059Y-90828208D01*
X130868369Y-90820233D01*
X130872050Y-90816553D01*
X130890733Y-90792923D01*
X130892896Y-90790266D01*
X130939775Y-90734400D01*
X130939779Y-90734391D01*
X130943743Y-90728366D01*
X130943822Y-90728418D01*
X130947535Y-90722589D01*
X130947455Y-90722540D01*
X130951243Y-90716397D01*
X130951248Y-90716391D01*
X130982021Y-90650393D01*
X130983575Y-90647183D01*
X131016268Y-90582090D01*
X131018739Y-90575301D01*
X131018827Y-90575333D01*
X131021094Y-90568809D01*
X131021005Y-90568780D01*
X131023276Y-90561927D01*
X131023276Y-90561925D01*
X131023278Y-90561922D01*
X131038022Y-90490512D01*
X131038754Y-90487209D01*
X131055574Y-90416246D01*
X131055574Y-90416237D01*
X131056412Y-90409073D01*
X131056503Y-90409083D01*
X131057206Y-90402206D01*
X131057115Y-90402198D01*
X131057744Y-90395007D01*
X131055626Y-90322209D01*
X131055574Y-90318603D01*
X131055574Y-88451252D01*
X131062532Y-88410299D01*
X131073814Y-88378055D01*
X131092749Y-88210002D01*
X131092749Y-88209997D01*
X131073813Y-88041943D01*
X131073813Y-88041941D01*
X131062532Y-88009701D01*
X131055574Y-87968747D01*
X131055574Y-85584390D01*
X131075259Y-85517351D01*
X131091889Y-85496713D01*
X131927082Y-84661519D01*
X131948779Y-84644215D01*
X132018390Y-84600477D01*
X132137977Y-84480890D01*
X132137981Y-84480884D01*
X132227952Y-84337697D01*
X132227954Y-84337694D01*
X132227954Y-84337692D01*
X132227956Y-84337690D01*
X132283813Y-84178059D01*
X132283813Y-84178058D01*
X132283814Y-84178056D01*
X132302749Y-84010002D01*
X132302749Y-84009997D01*
X132283814Y-83841943D01*
X132234784Y-83701823D01*
X132227956Y-83682310D01*
X132227955Y-83682309D01*
X132227954Y-83682305D01*
X132227952Y-83682302D01*
X132137981Y-83539115D01*
X132137976Y-83539109D01*
X132018390Y-83419523D01*
X132018384Y-83419518D01*
X131875197Y-83329547D01*
X131875194Y-83329545D01*
X131715556Y-83273685D01*
X131547503Y-83254751D01*
X131547497Y-83254751D01*
X131379443Y-83273685D01*
X131219805Y-83329545D01*
X131219802Y-83329547D01*
X131076615Y-83419518D01*
X131076609Y-83419523D01*
X130957021Y-83539111D01*
X130957020Y-83539113D01*
X130913289Y-83608710D01*
X130895977Y-83630418D01*
X130415180Y-84111215D01*
X130353857Y-84144700D01*
X130284165Y-84139716D01*
X130239818Y-84111215D01*
X129749023Y-83620420D01*
X129731710Y-83598711D01*
X129712185Y-83567637D01*
X129687977Y-83529110D01*
X129568390Y-83409523D01*
X129568384Y-83409518D01*
X129425197Y-83319547D01*
X129425194Y-83319545D01*
X129265556Y-83263685D01*
X129097503Y-83244751D01*
X129097497Y-83244751D01*
X128929443Y-83263685D01*
X128769805Y-83319545D01*
X128769802Y-83319547D01*
X128626615Y-83409518D01*
X128626609Y-83409523D01*
X128507023Y-83529109D01*
X128507018Y-83529115D01*
X128417047Y-83672302D01*
X128417045Y-83672305D01*
X128361185Y-83831943D01*
X128342251Y-83999997D01*
X128342251Y-84000002D01*
X120029879Y-84000002D01*
X120027307Y-83998857D01*
X120027302Y-83998855D01*
X119881501Y-83967865D01*
X119842146Y-83959500D01*
X119652854Y-83959500D01*
X119620397Y-83966398D01*
X119467697Y-83998855D01*
X119467692Y-83998857D01*
X119294770Y-84075848D01*
X119294765Y-84075851D01*
X119141629Y-84187111D01*
X119014966Y-84327785D01*
X118920321Y-84491715D01*
X118920318Y-84491722D01*
X118868396Y-84651523D01*
X118861826Y-84671744D01*
X118842040Y-84860000D01*
X118861826Y-85048256D01*
X118861827Y-85048259D01*
X118920318Y-85228277D01*
X118920321Y-85228284D01*
X119001787Y-85369388D01*
X119018400Y-85431386D01*
X119018400Y-87365619D01*
X119001787Y-87427619D01*
X118925737Y-87559341D01*
X118867243Y-87739367D01*
X118867242Y-87739371D01*
X118847456Y-87927627D01*
X118867242Y-88115883D01*
X118867243Y-88115886D01*
X118925734Y-88295904D01*
X118925737Y-88295911D01*
X119001787Y-88427633D01*
X119018400Y-88489633D01*
X119018400Y-92116900D01*
X118998715Y-92183939D01*
X118945911Y-92229694D01*
X118894400Y-92240900D01*
X118149650Y-92240900D01*
X118131681Y-92239591D01*
X118108846Y-92236246D01*
X118061061Y-92240428D01*
X118050253Y-92240900D01*
X118045034Y-92240900D01*
X118015184Y-92244389D01*
X118011598Y-92244755D01*
X117939056Y-92251101D01*
X117931990Y-92252561D01*
X117931972Y-92252474D01*
X117925212Y-92253972D01*
X117925233Y-92254060D01*
X117918209Y-92255724D01*
X117849801Y-92280622D01*
X117846397Y-92281805D01*
X117777281Y-92304708D01*
X117770731Y-92307763D01*
X117770692Y-92307680D01*
X117764457Y-92310699D01*
X117764498Y-92310781D01*
X117758044Y-92314021D01*
X117697226Y-92354022D01*
X117694187Y-92355958D01*
X117632211Y-92394187D01*
X117626541Y-92398670D01*
X117626485Y-92398599D01*
X117621130Y-92402961D01*
X117621188Y-92403030D01*
X117615650Y-92407677D01*
X117565669Y-92460652D01*
X117563158Y-92463237D01*
X117415446Y-92610949D01*
X117376621Y-92635347D01*
X117377187Y-92636521D01*
X117370909Y-92639544D01*
X117227709Y-92729523D01*
X117108123Y-92849109D01*
X117108118Y-92849115D01*
X117018147Y-92992302D01*
X117018145Y-92992305D01*
X116962285Y-93151943D01*
X116943351Y-93319997D01*
X116943351Y-93320002D01*
X106408000Y-93320002D01*
X106408000Y-91580843D01*
X106427685Y-91513804D01*
X106480489Y-91468049D01*
X106549647Y-91458105D01*
X106613203Y-91487130D01*
X106650977Y-91545908D01*
X106654570Y-91562067D01*
X106665752Y-91635063D01*
X106665755Y-91635076D01*
X106701768Y-91732313D01*
X106736453Y-91825964D01*
X106844131Y-91998717D01*
X106844132Y-91998718D01*
X106844134Y-91998721D01*
X106956472Y-92116900D01*
X106984379Y-92146258D01*
X107151456Y-92262547D01*
X107338522Y-92342823D01*
X107537918Y-92383800D01*
X108289864Y-92383800D01*
X108441620Y-92368368D01*
X108635837Y-92307432D01*
X108635837Y-92307431D01*
X108635846Y-92307429D01*
X108813831Y-92208639D01*
X108968286Y-92076043D01*
X109092889Y-91915071D01*
X109182537Y-91732311D01*
X109233560Y-91535246D01*
X109238702Y-91433857D01*
X110565529Y-91433857D01*
X110596352Y-91635064D01*
X110596355Y-91635076D01*
X110632368Y-91732313D01*
X110667053Y-91825964D01*
X110774731Y-91998717D01*
X110774732Y-91998718D01*
X110774734Y-91998721D01*
X110887072Y-92116900D01*
X110914979Y-92146258D01*
X111082056Y-92262547D01*
X111269122Y-92342823D01*
X111468518Y-92383800D01*
X112720864Y-92383800D01*
X112872620Y-92368368D01*
X113066837Y-92307432D01*
X113066837Y-92307431D01*
X113066846Y-92307429D01*
X113244831Y-92208639D01*
X113399286Y-92076043D01*
X113523889Y-91915071D01*
X113613537Y-91732311D01*
X113664560Y-91535246D01*
X113674871Y-91331944D01*
X113644046Y-91130728D01*
X113573347Y-90939836D01*
X113465669Y-90767083D01*
X113465666Y-90767080D01*
X113465665Y-90767078D01*
X113325423Y-90619544D01*
X113325422Y-90619543D01*
X113158343Y-90503252D01*
X112971278Y-90422977D01*
X112771882Y-90382000D01*
X112284581Y-90382000D01*
X112217542Y-90362315D01*
X112171787Y-90309511D01*
X112161843Y-90240353D01*
X112170018Y-90210552D01*
X112174931Y-90198692D01*
X112195586Y-90041800D01*
X112191983Y-90014435D01*
X112174931Y-89884909D01*
X112174931Y-89884908D01*
X112114372Y-89738707D01*
X112018038Y-89613162D01*
X111892493Y-89516828D01*
X111892489Y-89516826D01*
X111746292Y-89456269D01*
X111746290Y-89456268D01*
X111628801Y-89440801D01*
X111628798Y-89440800D01*
X111628792Y-89440800D01*
X111550008Y-89440800D01*
X111550002Y-89440800D01*
X111549998Y-89440801D01*
X111432509Y-89456268D01*
X111432507Y-89456269D01*
X111286310Y-89516826D01*
X111160762Y-89613162D01*
X111064426Y-89738710D01*
X111003869Y-89884907D01*
X111003868Y-89884909D01*
X110983214Y-90041798D01*
X110983214Y-90041801D01*
X111003868Y-90198690D01*
X111003869Y-90198692D01*
X111064426Y-90344890D01*
X111064430Y-90344896D01*
X111070534Y-90352852D01*
X111095726Y-90418022D01*
X111081686Y-90486466D01*
X111032870Y-90536454D01*
X111032336Y-90536753D01*
X110995567Y-90557162D01*
X110995566Y-90557162D01*
X110841116Y-90689754D01*
X110716511Y-90850728D01*
X110626864Y-91033486D01*
X110575840Y-91230553D01*
X110565529Y-91433857D01*
X109238702Y-91433857D01*
X109243871Y-91331944D01*
X109213046Y-91130728D01*
X109142347Y-90939836D01*
X109034669Y-90767083D01*
X109034666Y-90767080D01*
X109034665Y-90767078D01*
X108894423Y-90619544D01*
X108894422Y-90619543D01*
X108727343Y-90503252D01*
X108540278Y-90422977D01*
X108340882Y-90382000D01*
X107588937Y-90382000D01*
X107588936Y-90382000D01*
X107437179Y-90397431D01*
X107242962Y-90458367D01*
X107242952Y-90458372D01*
X107064967Y-90557162D01*
X107064966Y-90557162D01*
X106910516Y-90689754D01*
X106785911Y-90850728D01*
X106696264Y-91033486D01*
X106696263Y-91033489D01*
X106655616Y-91190481D01*
X106652042Y-91204284D01*
X106616182Y-91264249D01*
X106553595Y-91295308D01*
X106484152Y-91287599D01*
X106429900Y-91243571D01*
X106408064Y-91177201D01*
X106408000Y-91173203D01*
X106408000Y-82939843D01*
X106427685Y-82872804D01*
X106480489Y-82827049D01*
X106549647Y-82817105D01*
X106613203Y-82846130D01*
X106650977Y-82904908D01*
X106654570Y-82921067D01*
X106665752Y-82994063D01*
X106665755Y-82994076D01*
X106701768Y-83091313D01*
X106736453Y-83184964D01*
X106844131Y-83357717D01*
X106844132Y-83357718D01*
X106844134Y-83357721D01*
X106984376Y-83505255D01*
X106984379Y-83505258D01*
X107151456Y-83621547D01*
X107338522Y-83701823D01*
X107537918Y-83742800D01*
X108289864Y-83742800D01*
X108441620Y-83727368D01*
X108635837Y-83666432D01*
X108635837Y-83666431D01*
X108635846Y-83666429D01*
X108813831Y-83567639D01*
X108968286Y-83435043D01*
X109092889Y-83274071D01*
X109182537Y-83091311D01*
X109233560Y-82894246D01*
X109238702Y-82792857D01*
X110565529Y-82792857D01*
X110596352Y-82994064D01*
X110596355Y-82994076D01*
X110632368Y-83091313D01*
X110667053Y-83184964D01*
X110774731Y-83357717D01*
X110774732Y-83357718D01*
X110774734Y-83357721D01*
X110914976Y-83505255D01*
X110914979Y-83505258D01*
X111043160Y-83594475D01*
X111086937Y-83648927D01*
X111094326Y-83718405D01*
X111070701Y-83771730D01*
X111064428Y-83779905D01*
X111003869Y-83926107D01*
X111003868Y-83926109D01*
X110983214Y-84082998D01*
X110983214Y-84083001D01*
X111003868Y-84239890D01*
X111003869Y-84239892D01*
X111044381Y-84337697D01*
X111064428Y-84386093D01*
X111160762Y-84511638D01*
X111286307Y-84607972D01*
X111432508Y-84668531D01*
X111550008Y-84684000D01*
X111550015Y-84684000D01*
X111628785Y-84684000D01*
X111628792Y-84684000D01*
X111746292Y-84668531D01*
X111892493Y-84607972D01*
X112018038Y-84511638D01*
X112114372Y-84386093D01*
X112174931Y-84239892D01*
X112188701Y-84135297D01*
X112195586Y-84083001D01*
X112195586Y-84082998D01*
X112174931Y-83926110D01*
X112174931Y-83926109D01*
X112174931Y-83926108D01*
X112170019Y-83914251D01*
X112162551Y-83844784D01*
X112193825Y-83782305D01*
X112253914Y-83746652D01*
X112284581Y-83742800D01*
X112720864Y-83742800D01*
X112872620Y-83727368D01*
X113066837Y-83666432D01*
X113066837Y-83666431D01*
X113066846Y-83666429D01*
X113244831Y-83567639D01*
X113399286Y-83435043D01*
X113523889Y-83274071D01*
X113613537Y-83091311D01*
X113664560Y-82894246D01*
X113674871Y-82690944D01*
X113644046Y-82489728D01*
X113573347Y-82298836D01*
X113465669Y-82126083D01*
X113465666Y-82126080D01*
X113465665Y-82126078D01*
X113325423Y-81978544D01*
X113325422Y-81978543D01*
X113314465Y-81970917D01*
X113235796Y-81916161D01*
X113158343Y-81862252D01*
X112971278Y-81781977D01*
X112771882Y-81741000D01*
X111519537Y-81741000D01*
X111519536Y-81741000D01*
X111367779Y-81756431D01*
X111173562Y-81817367D01*
X111173552Y-81817372D01*
X110995567Y-81916162D01*
X110995566Y-81916162D01*
X110841116Y-82048754D01*
X110716511Y-82209728D01*
X110626864Y-82392486D01*
X110575840Y-82589553D01*
X110565529Y-82792857D01*
X109238702Y-82792857D01*
X109243871Y-82690944D01*
X109213046Y-82489728D01*
X109142347Y-82298836D01*
X109034669Y-82126083D01*
X109034666Y-82126080D01*
X109034665Y-82126078D01*
X108894423Y-81978544D01*
X108894422Y-81978543D01*
X108883465Y-81970917D01*
X108804796Y-81916161D01*
X108727343Y-81862252D01*
X108540278Y-81781977D01*
X108340882Y-81741000D01*
X107588937Y-81741000D01*
X107588936Y-81741000D01*
X107437179Y-81756431D01*
X107242962Y-81817367D01*
X107242952Y-81817372D01*
X107064967Y-81916162D01*
X107064966Y-81916162D01*
X106910516Y-82048754D01*
X106785911Y-82209728D01*
X106696264Y-82392486D01*
X106696263Y-82392489D01*
X106671087Y-82489728D01*
X106652042Y-82563284D01*
X106616182Y-82623249D01*
X106553595Y-82654308D01*
X106484152Y-82646599D01*
X106429900Y-82602571D01*
X106408064Y-82536201D01*
X106408000Y-82532203D01*
X106408000Y-81260000D01*
X129156864Y-81260000D01*
X129214067Y-81473486D01*
X129214070Y-81473492D01*
X129313899Y-81687578D01*
X129449394Y-81881082D01*
X129616417Y-82048105D01*
X129809921Y-82183600D01*
X130024007Y-82283429D01*
X130024016Y-82283433D01*
X130237500Y-82340634D01*
X130237500Y-81445501D01*
X130345185Y-81494680D01*
X130451737Y-81510000D01*
X130523263Y-81510000D01*
X130629815Y-81494680D01*
X130737500Y-81445501D01*
X130737500Y-82340633D01*
X130950983Y-82283433D01*
X130950992Y-82283429D01*
X131165078Y-82183600D01*
X131358582Y-82048105D01*
X131525605Y-81881082D01*
X131655619Y-81695405D01*
X131710196Y-81651781D01*
X131779695Y-81644588D01*
X131842049Y-81676110D01*
X131858769Y-81695405D01*
X131989005Y-81881401D01*
X132156099Y-82048495D01*
X132252884Y-82116265D01*
X132349665Y-82184032D01*
X132349667Y-82184033D01*
X132349670Y-82184035D01*
X132563837Y-82283903D01*
X132792092Y-82345063D01*
X132968534Y-82360500D01*
X133027499Y-82365659D01*
X133027500Y-82365659D01*
X133027501Y-82365659D01*
X133086466Y-82360500D01*
X133262908Y-82345063D01*
X133491163Y-82283903D01*
X133705330Y-82184035D01*
X133898901Y-82048495D01*
X134065995Y-81881401D01*
X134195925Y-81695842D01*
X134250502Y-81652217D01*
X134320000Y-81645023D01*
X134382355Y-81676546D01*
X134399075Y-81695842D01*
X134528781Y-81881082D01*
X134529005Y-81881401D01*
X134696099Y-82048495D01*
X134792884Y-82116265D01*
X134889665Y-82184032D01*
X134889667Y-82184033D01*
X134889670Y-82184035D01*
X135103837Y-82283903D01*
X135332092Y-82345063D01*
X135508534Y-82360500D01*
X135567499Y-82365659D01*
X135567500Y-82365659D01*
X135567501Y-82365659D01*
X135626466Y-82360500D01*
X135802908Y-82345063D01*
X136031163Y-82283903D01*
X136245330Y-82184035D01*
X136438901Y-82048495D01*
X136560829Y-81926566D01*
X136622148Y-81893084D01*
X136691840Y-81898068D01*
X136747774Y-81939939D01*
X136764689Y-81970917D01*
X136813702Y-82102328D01*
X136813706Y-82102335D01*
X136899952Y-82217544D01*
X136899955Y-82217547D01*
X137015164Y-82303793D01*
X137015171Y-82303797D01*
X137150017Y-82354091D01*
X137150016Y-82354091D01*
X137156944Y-82354835D01*
X137209627Y-82360500D01*
X139005372Y-82360499D01*
X139064983Y-82354091D01*
X139199831Y-82303796D01*
X139315046Y-82217546D01*
X139401296Y-82102331D01*
X139451591Y-81967483D01*
X139458000Y-81907873D01*
X139457999Y-80112128D01*
X139451591Y-80052517D01*
X139450310Y-80049083D01*
X139401297Y-79917671D01*
X139401293Y-79917664D01*
X139315047Y-79802455D01*
X139315044Y-79802452D01*
X139199835Y-79716206D01*
X139199828Y-79716202D01*
X139064982Y-79665908D01*
X139064983Y-79665908D01*
X139005383Y-79659501D01*
X139005381Y-79659500D01*
X139005373Y-79659500D01*
X139005364Y-79659500D01*
X137209629Y-79659500D01*
X137209623Y-79659501D01*
X137150016Y-79665908D01*
X137015171Y-79716202D01*
X137015164Y-79716206D01*
X136899955Y-79802452D01*
X136899952Y-79802455D01*
X136813706Y-79917664D01*
X136813703Y-79917669D01*
X136764689Y-80049083D01*
X136722817Y-80105016D01*
X136657353Y-80129433D01*
X136589080Y-80114581D01*
X136560826Y-80093430D01*
X136438902Y-79971506D01*
X136438895Y-79971501D01*
X136245334Y-79835967D01*
X136245330Y-79835965D01*
X136216386Y-79822468D01*
X136031163Y-79736097D01*
X136031159Y-79736096D01*
X136031155Y-79736094D01*
X135802913Y-79674938D01*
X135802903Y-79674936D01*
X135567501Y-79654341D01*
X135567499Y-79654341D01*
X135332096Y-79674936D01*
X135332086Y-79674938D01*
X135103844Y-79736094D01*
X135103835Y-79736098D01*
X134889671Y-79835964D01*
X134889669Y-79835965D01*
X134696097Y-79971505D01*
X134529005Y-80138597D01*
X134399075Y-80324158D01*
X134344498Y-80367783D01*
X134275000Y-80374977D01*
X134212645Y-80343454D01*
X134195925Y-80324158D01*
X134065994Y-80138597D01*
X133898902Y-79971506D01*
X133898895Y-79971501D01*
X133705334Y-79835967D01*
X133705330Y-79835965D01*
X133676386Y-79822468D01*
X133491163Y-79736097D01*
X133491159Y-79736096D01*
X133491155Y-79736094D01*
X133262913Y-79674938D01*
X133262903Y-79674936D01*
X133027501Y-79654341D01*
X133027499Y-79654341D01*
X132792096Y-79674936D01*
X132792086Y-79674938D01*
X132563844Y-79736094D01*
X132563835Y-79736098D01*
X132349671Y-79835964D01*
X132349669Y-79835965D01*
X132156097Y-79971505D01*
X131989008Y-80138594D01*
X131858769Y-80324595D01*
X131804192Y-80368219D01*
X131734693Y-80375412D01*
X131672339Y-80343890D01*
X131655619Y-80324594D01*
X131525613Y-80138926D01*
X131525608Y-80138920D01*
X131358582Y-79971894D01*
X131165078Y-79836399D01*
X130950992Y-79736570D01*
X130950986Y-79736567D01*
X130737500Y-79679364D01*
X130737500Y-80574498D01*
X130629815Y-80525320D01*
X130523263Y-80510000D01*
X130451737Y-80510000D01*
X130345185Y-80525320D01*
X130237500Y-80574498D01*
X130237500Y-79679364D01*
X130237499Y-79679364D01*
X130024013Y-79736567D01*
X130024007Y-79736570D01*
X129809922Y-79836399D01*
X129809920Y-79836400D01*
X129616426Y-79971886D01*
X129616420Y-79971891D01*
X129449391Y-80138920D01*
X129449386Y-80138926D01*
X129313900Y-80332420D01*
X129313899Y-80332422D01*
X129214070Y-80546507D01*
X129214067Y-80546513D01*
X129156864Y-80759999D01*
X129156864Y-80760000D01*
X130053814Y-80760000D01*
X130028007Y-80800156D01*
X129987500Y-80938111D01*
X129987500Y-81081889D01*
X130028007Y-81219844D01*
X130053814Y-81260000D01*
X129156864Y-81260000D01*
X106408000Y-81260000D01*
X106408000Y-79915412D01*
X106408472Y-79904605D01*
X106411915Y-79865250D01*
X106412040Y-79863904D01*
X106414749Y-79836399D01*
X106424418Y-79738221D01*
X106428040Y-79718318D01*
X106445408Y-79653498D01*
X106446456Y-79649828D01*
X106474185Y-79558419D01*
X106480448Y-79542049D01*
X106511200Y-79476102D01*
X106514170Y-79470161D01*
X106556512Y-79390944D01*
X106564286Y-79378289D01*
X106607139Y-79317089D01*
X106612830Y-79309587D01*
X106668691Y-79241521D01*
X106676825Y-79232547D01*
X106730047Y-79179325D01*
X106739021Y-79171191D01*
X106807087Y-79115330D01*
X106814589Y-79109639D01*
X106875789Y-79066786D01*
X106888449Y-79059010D01*
X106967661Y-79016670D01*
X106973602Y-79013700D01*
X107039549Y-78982948D01*
X107055919Y-78976685D01*
X107147328Y-78948956D01*
X107150998Y-78947908D01*
X107215818Y-78930540D01*
X107235721Y-78926918D01*
X107361427Y-78914537D01*
X107362704Y-78914419D01*
X107402105Y-78910971D01*
X107412912Y-78910500D01*
X140402087Y-78910500D01*
X140412892Y-78910972D01*
G37*
%TD.AperFunction*%
%TD*%
M02*
