%TF.GenerationSoftware,KiCad,Pcbnew,7.0.10*%
%TF.CreationDate,2024-02-03T16:53:45+08:00*%
%TF.ProjectId,ad7142-eval,61643731-3432-42d6-9576-616c2e6b6963,rev?*%
%TF.SameCoordinates,Original*%
%TF.FileFunction,Paste,Top*%
%TF.FilePolarity,Positive*%
%FSLAX46Y46*%
G04 Gerber Fmt 4.6, Leading zero omitted, Abs format (unit mm)*
G04 Created by KiCad (PCBNEW 7.0.10) date 2024-02-03 16:53:45*
%MOMM*%
%LPD*%
G01*
G04 APERTURE LIST*
G04 Aperture macros list*
%AMRoundRect*
0 Rectangle with rounded corners*
0 $1 Rounding radius*
0 $2 $3 $4 $5 $6 $7 $8 $9 X,Y pos of 4 corners*
0 Add a 4 corners polygon primitive as box body*
4,1,4,$2,$3,$4,$5,$6,$7,$8,$9,$2,$3,0*
0 Add four circle primitives for the rounded corners*
1,1,$1+$1,$2,$3*
1,1,$1+$1,$4,$5*
1,1,$1+$1,$6,$7*
1,1,$1+$1,$8,$9*
0 Add four rect primitives between the rounded corners*
20,1,$1+$1,$2,$3,$4,$5,0*
20,1,$1+$1,$4,$5,$6,$7,0*
20,1,$1+$1,$6,$7,$8,$9,0*
20,1,$1+$1,$8,$9,$2,$3,0*%
G04 Aperture macros list end*
%ADD10RoundRect,0.160000X0.160000X-0.197500X0.160000X0.197500X-0.160000X0.197500X-0.160000X-0.197500X0*%
%ADD11RoundRect,0.160000X0.197500X0.160000X-0.197500X0.160000X-0.197500X-0.160000X0.197500X-0.160000X0*%
%ADD12RoundRect,0.155000X-0.212500X-0.155000X0.212500X-0.155000X0.212500X0.155000X-0.212500X0.155000X0*%
%ADD13RoundRect,0.160000X-0.197500X-0.160000X0.197500X-0.160000X0.197500X0.160000X-0.197500X0.160000X0*%
%ADD14RoundRect,0.160000X-0.160000X0.197500X-0.160000X-0.197500X0.160000X-0.197500X0.160000X0.197500X0*%
%ADD15RoundRect,0.207500X0.207500X-0.207500X0.207500X0.207500X-0.207500X0.207500X-0.207500X-0.207500X0*%
%ADD16RoundRect,0.062500X0.062500X-0.350000X0.062500X0.350000X-0.062500X0.350000X-0.062500X-0.350000X0*%
%ADD17RoundRect,0.062500X0.350000X-0.062500X0.350000X0.062500X-0.350000X0.062500X-0.350000X-0.062500X0*%
%ADD18RoundRect,0.155000X0.155000X-0.212500X0.155000X0.212500X-0.155000X0.212500X-0.155000X-0.212500X0*%
%ADD19RoundRect,0.150000X0.650000X0.150000X-0.650000X0.150000X-0.650000X-0.150000X0.650000X-0.150000X0*%
%ADD20RoundRect,0.155000X0.212500X0.155000X-0.212500X0.155000X-0.212500X-0.155000X0.212500X-0.155000X0*%
%ADD21RoundRect,0.150000X-0.512500X-0.150000X0.512500X-0.150000X0.512500X0.150000X-0.512500X0.150000X0*%
%ADD22RoundRect,0.150000X-0.150000X0.825000X-0.150000X-0.825000X0.150000X-0.825000X0.150000X0.825000X0*%
%ADD23RoundRect,0.249999X0.395001X-0.395001X0.395001X0.395001X-0.395001X0.395001X-0.395001X-0.395001X0*%
%ADD24RoundRect,0.050000X0.050000X-0.387500X0.050000X0.387500X-0.050000X0.387500X-0.050000X-0.387500X0*%
%ADD25RoundRect,0.050000X0.387500X-0.050000X0.387500X0.050000X-0.387500X0.050000X-0.387500X-0.050000X0*%
%ADD26RoundRect,0.050800X-0.725150X0.149850X-0.725150X-0.149850X0.725150X-0.149850X0.725150X0.149850X0*%
%ADD27RoundRect,0.050800X-0.725150X0.299700X-0.725150X-0.299700X0.725150X-0.299700X0.725150X0.299700X0*%
%ADD28R,1.400000X1.200000*%
G04 APERTURE END LIST*
D10*
%TO.C,R37*%
X140462000Y-113538000D03*
X140462000Y-112343000D03*
%TD*%
D11*
%TO.C,R30*%
X135540000Y-100640000D03*
X136735000Y-100640000D03*
%TD*%
D12*
%TO.C,C6*%
X116630000Y-90220000D03*
X117765000Y-90220000D03*
%TD*%
%TO.C,C15*%
X116630000Y-89120000D03*
X117765000Y-89120000D03*
%TD*%
D13*
%TO.C,R6*%
X127512500Y-82810000D03*
X128707500Y-82810000D03*
%TD*%
D12*
%TO.C,C20*%
X130845000Y-92935000D03*
X129710000Y-92935000D03*
%TD*%
D11*
%TO.C,R15*%
X122530000Y-96410000D03*
X121335000Y-96410000D03*
%TD*%
D10*
%TO.C,R32*%
X134527500Y-103122500D03*
X134527500Y-104317500D03*
%TD*%
D12*
%TO.C,C3*%
X133330000Y-91210000D03*
X134465000Y-91210000D03*
%TD*%
D14*
%TO.C,R27*%
X130332500Y-103265000D03*
X130332500Y-104460000D03*
%TD*%
D12*
%TO.C,C24*%
X131976000Y-94968000D03*
X133111000Y-94968000D03*
%TD*%
D14*
%TO.C,R24*%
X126907500Y-103212500D03*
X126907500Y-104407500D03*
%TD*%
D10*
%TO.C,R34*%
X137851500Y-103122500D03*
X137851500Y-104317500D03*
%TD*%
D12*
%TO.C,C18*%
X130865000Y-90610000D03*
X132000000Y-90610000D03*
%TD*%
D14*
%TO.C,R29*%
X132632500Y-103290000D03*
X132632500Y-104485000D03*
%TD*%
D15*
%TO.C,U4*%
X125947500Y-98840000D03*
X126977500Y-98840000D03*
X128007500Y-98840000D03*
X125947500Y-97810000D03*
X126977500Y-97810000D03*
X128007500Y-97810000D03*
X125947500Y-96780000D03*
X126977500Y-96780000D03*
X128007500Y-96780000D03*
D16*
X125227500Y-100247500D03*
X125727500Y-100247500D03*
X126227500Y-100247500D03*
X126727500Y-100247500D03*
X127227500Y-100247500D03*
X127727500Y-100247500D03*
X128227500Y-100247500D03*
X128727500Y-100247500D03*
D17*
X129415000Y-99560000D03*
X129415000Y-99060000D03*
X129415000Y-98560000D03*
X129415000Y-98060000D03*
X129415000Y-97560000D03*
X129415000Y-97060000D03*
X129415000Y-96560000D03*
X129415000Y-96060000D03*
D16*
X128727500Y-95372500D03*
X128227500Y-95372500D03*
X127727500Y-95372500D03*
X127227500Y-95372500D03*
X126727500Y-95372500D03*
X126227500Y-95372500D03*
X125727500Y-95372500D03*
X125227500Y-95372500D03*
D17*
X124540000Y-96060000D03*
X124540000Y-96560000D03*
X124540000Y-97060000D03*
X124540000Y-97560000D03*
X124540000Y-98060000D03*
X124540000Y-98560000D03*
X124540000Y-99060000D03*
X124540000Y-99560000D03*
%TD*%
D13*
%TO.C,R8*%
X115510000Y-86610000D03*
X116705000Y-86610000D03*
%TD*%
D12*
%TO.C,C22*%
X131990000Y-97010000D03*
X133125000Y-97010000D03*
%TD*%
D10*
%TO.C,R11*%
X122107500Y-94710000D03*
X122107500Y-93515000D03*
%TD*%
D14*
%TO.C,R23*%
X125782500Y-103212500D03*
X125782500Y-104407500D03*
%TD*%
D12*
%TO.C,C17*%
X117840000Y-84860000D03*
X118975000Y-84860000D03*
%TD*%
D14*
%TO.C,R25*%
X128032500Y-103240000D03*
X128032500Y-104435000D03*
%TD*%
%TO.C,R17*%
X119032500Y-103262500D03*
X119032500Y-104457500D03*
%TD*%
D13*
%TO.C,R2*%
X113672500Y-99570000D03*
X114867500Y-99570000D03*
%TD*%
D14*
%TO.C,R20*%
X122407500Y-104482500D03*
X122407500Y-103287500D03*
%TD*%
D18*
%TO.C,C7*%
X115557500Y-82310000D03*
X115557500Y-81175000D03*
%TD*%
D13*
%TO.C,R12*%
X131926000Y-95984000D03*
X133121000Y-95984000D03*
%TD*%
D11*
%TO.C,R10*%
X130855000Y-91810000D03*
X129660000Y-91810000D03*
%TD*%
D10*
%TO.C,R13*%
X139617500Y-93632500D03*
X139617500Y-94827500D03*
%TD*%
D18*
%TO.C,C13*%
X124407500Y-80877500D03*
X124407500Y-79742500D03*
%TD*%
D13*
%TO.C,R1*%
X109610000Y-80510000D03*
X110805000Y-80510000D03*
%TD*%
D12*
%TO.C,C19*%
X132015000Y-98060000D03*
X133150000Y-98060000D03*
%TD*%
D18*
%TO.C,C5*%
X136082500Y-86485000D03*
X136082500Y-85350000D03*
%TD*%
D14*
%TO.C,R9*%
X123207500Y-93512500D03*
X123207500Y-94707500D03*
%TD*%
D18*
%TO.C,C4*%
X116807500Y-82310000D03*
X116807500Y-81175000D03*
%TD*%
D19*
%TO.C,U1*%
X109757500Y-98015000D03*
X109757500Y-96745000D03*
X109757500Y-95475000D03*
X109757500Y-94205000D03*
X116957500Y-94205000D03*
X116957500Y-95475000D03*
X116957500Y-96745000D03*
X116957500Y-98015000D03*
%TD*%
D10*
%TO.C,R31*%
X136743500Y-103122500D03*
X136743500Y-104317500D03*
%TD*%
D14*
%TO.C,R21*%
X123532500Y-103237500D03*
X123532500Y-104432500D03*
%TD*%
D10*
%TO.C,R33*%
X135635500Y-104317500D03*
X135635500Y-103122500D03*
%TD*%
%TO.C,R5*%
X116407500Y-85407500D03*
X116407500Y-84212500D03*
%TD*%
D18*
%TO.C,C11*%
X123307500Y-80877500D03*
X123307500Y-79742500D03*
%TD*%
D12*
%TO.C,C1*%
X111792500Y-99570000D03*
X110657500Y-99570000D03*
%TD*%
D10*
%TO.C,R35*%
X138959500Y-103122500D03*
X138959500Y-104317500D03*
%TD*%
%TO.C,R36*%
X140067500Y-104317500D03*
X140067500Y-103122500D03*
%TD*%
D20*
%TO.C,C26*%
X122525000Y-97560000D03*
X121390000Y-97560000D03*
%TD*%
%TO.C,C25*%
X138017500Y-100610000D03*
X139152500Y-100610000D03*
%TD*%
D12*
%TO.C,C12*%
X117840000Y-87810000D03*
X118975000Y-87810000D03*
%TD*%
D20*
%TO.C,C23*%
X128535000Y-93640000D03*
X127400000Y-93640000D03*
%TD*%
%TO.C,C14*%
X132125000Y-88385000D03*
X130990000Y-88385000D03*
%TD*%
D13*
%TO.C,R7*%
X115512500Y-87710000D03*
X116707500Y-87710000D03*
%TD*%
D14*
%TO.C,R18*%
X120157500Y-103262500D03*
X120157500Y-104457500D03*
%TD*%
D21*
%TO.C,U2*%
X118970000Y-80410000D03*
X118970000Y-81360000D03*
X118970000Y-82310000D03*
X121245000Y-82310000D03*
X121245000Y-80410000D03*
%TD*%
D10*
%TO.C,R4*%
X115507500Y-90007500D03*
X115507500Y-88812500D03*
%TD*%
%TO.C,R14*%
X139607500Y-97245000D03*
X139607500Y-96050000D03*
%TD*%
D22*
%TO.C,U5*%
X138252500Y-93065000D03*
X136982500Y-93065000D03*
X135712500Y-93065000D03*
X134442500Y-93065000D03*
X134442500Y-98015000D03*
X135712500Y-98015000D03*
X136982500Y-98015000D03*
X138252500Y-98015000D03*
%TD*%
D14*
%TO.C,R28*%
X131482500Y-104482500D03*
X131482500Y-103287500D03*
%TD*%
%TO.C,R19*%
X121282500Y-104457500D03*
X121282500Y-103262500D03*
%TD*%
D11*
%TO.C,R3*%
X111802500Y-100630000D03*
X110607500Y-100630000D03*
%TD*%
D20*
%TO.C,C8*%
X132117500Y-87285000D03*
X130982500Y-87285000D03*
%TD*%
D12*
%TO.C,C10*%
X123107500Y-82310000D03*
X124242500Y-82310000D03*
%TD*%
D14*
%TO.C,R16*%
X117907500Y-103262500D03*
X117907500Y-104457500D03*
%TD*%
D12*
%TO.C,C21*%
X129697500Y-94060000D03*
X130832500Y-94060000D03*
%TD*%
%TO.C,C2*%
X109640000Y-81710000D03*
X110775000Y-81710000D03*
%TD*%
D23*
%TO.C,U3*%
X124007500Y-89210000D03*
X125607500Y-89210000D03*
X124007500Y-87610000D03*
X125607500Y-87610000D03*
D24*
X122207500Y-91847500D03*
X122607500Y-91847500D03*
X123007500Y-91847500D03*
X123407500Y-91847500D03*
X123807500Y-91847500D03*
X124207500Y-91847500D03*
X124607500Y-91847500D03*
X125007500Y-91847500D03*
X125407500Y-91847500D03*
X125807500Y-91847500D03*
X126207500Y-91847500D03*
X126607500Y-91847500D03*
X127007500Y-91847500D03*
X127407500Y-91847500D03*
D25*
X128245000Y-91010000D03*
X128245000Y-90610000D03*
X128245000Y-90210000D03*
X128245000Y-89810000D03*
X128245000Y-89410000D03*
X128245000Y-89010000D03*
X128245000Y-88610000D03*
X128245000Y-88210000D03*
X128245000Y-87810000D03*
X128245000Y-87410000D03*
X128245000Y-87010000D03*
X128245000Y-86610000D03*
X128245000Y-86210000D03*
X128245000Y-85810000D03*
D24*
X127407500Y-84972500D03*
X127007500Y-84972500D03*
X126607500Y-84972500D03*
X126207500Y-84972500D03*
X125807500Y-84972500D03*
X125407500Y-84972500D03*
X125007500Y-84972500D03*
X124607500Y-84972500D03*
X124207500Y-84972500D03*
X123807500Y-84972500D03*
X123407500Y-84972500D03*
X123007500Y-84972500D03*
X122607500Y-84972500D03*
X122207500Y-84972500D03*
D25*
X121370000Y-85810000D03*
X121370000Y-86210000D03*
X121370000Y-86610000D03*
X121370000Y-87010000D03*
X121370000Y-87410000D03*
X121370000Y-87810000D03*
X121370000Y-88210000D03*
X121370000Y-88610000D03*
X121370000Y-89010000D03*
X121370000Y-89410000D03*
X121370000Y-89810000D03*
X121370000Y-90210000D03*
X121370000Y-90610000D03*
X121370000Y-91010000D03*
%TD*%
D20*
%TO.C,C16*%
X126975000Y-81710000D03*
X125840000Y-81710000D03*
%TD*%
D12*
%TO.C,C9*%
X117840000Y-86010000D03*
X118975000Y-86010000D03*
%TD*%
D26*
%TO.C,USB1*%
X113034600Y-85312300D03*
X113034600Y-86313100D03*
X113034600Y-87811700D03*
X113034600Y-88812500D03*
D27*
X113034600Y-89513500D03*
X113034600Y-90283100D03*
D26*
X113034600Y-88312100D03*
X113034600Y-87311300D03*
X113034600Y-86813500D03*
X113034600Y-85812700D03*
D27*
X113034600Y-84611300D03*
X113034600Y-83836600D03*
%TD*%
D14*
%TO.C,R26*%
X129182500Y-103265000D03*
X129182500Y-104460000D03*
%TD*%
D28*
%TO.C,Y1*%
X133782500Y-89685000D03*
X135982500Y-89685000D03*
X135982500Y-88085000D03*
X133782500Y-88085000D03*
%TD*%
D14*
%TO.C,R22*%
X124657500Y-103212500D03*
X124657500Y-104407500D03*
%TD*%
M02*
