%TF.GenerationSoftware,KiCad,Pcbnew,7.0.10*%
%TF.CreationDate,2024-02-03T16:53:46+08:00*%
%TF.ProjectId,ad7142-eval,61643731-3432-42d6-9576-616c2e6b6963,rev?*%
%TF.SameCoordinates,Original*%
%TF.FileFunction,Soldermask,Bot*%
%TF.FilePolarity,Negative*%
%FSLAX46Y46*%
G04 Gerber Fmt 4.6, Leading zero omitted, Abs format (unit mm)*
G04 Created by KiCad (PCBNEW 7.0.10) date 2024-02-03 16:53:46*
%MOMM*%
%LPD*%
G01*
G04 APERTURE LIST*
%ADD10R,1.350000X1.350000*%
%ADD11O,1.350000X1.350000*%
%ADD12R,1.700000X1.700000*%
%ADD13O,1.700000X1.700000*%
%ADD14O,1.701800X1.102400*%
%ADD15O,2.202200X1.102400*%
%ADD16C,0.701000*%
G04 APERTURE END LIST*
D10*
%TO.C,J23*%
X122911342Y-111680000D03*
D11*
X122911342Y-113680000D03*
%TD*%
D10*
%TO.C,J11*%
X127271342Y-109280000D03*
D11*
X127271342Y-107280000D03*
%TD*%
D10*
%TO.C,J17*%
X109752886Y-111680000D03*
D11*
X109752886Y-113680000D03*
%TD*%
D10*
%TO.C,J12*%
X129463649Y-109280000D03*
D11*
X129463649Y-107280000D03*
%TD*%
D12*
%TO.C,J1*%
X138107500Y-81010000D03*
D13*
X135567500Y-81010000D03*
X133027500Y-81010000D03*
X130487500Y-81010000D03*
%TD*%
D10*
%TO.C,J10*%
X125079035Y-109280000D03*
D11*
X125079035Y-107280000D03*
%TD*%
D10*
%TO.C,J29*%
X136069798Y-111680000D03*
D11*
X136069798Y-113680000D03*
%TD*%
D10*
%TO.C,J14*%
X133848263Y-109280000D03*
D11*
X133848263Y-107280000D03*
%TD*%
D10*
%TO.C,J16*%
X138232877Y-109280000D03*
D11*
X138232877Y-107280000D03*
%TD*%
D10*
%TO.C,J19*%
X114139038Y-111680000D03*
D11*
X114139038Y-113680000D03*
%TD*%
D10*
%TO.C,J18*%
X111945962Y-111680000D03*
D11*
X111945962Y-113680000D03*
%TD*%
D10*
%TO.C,J9*%
X122886728Y-109280000D03*
D11*
X122886728Y-107280000D03*
%TD*%
D10*
%TO.C,J20*%
X116332114Y-111680000D03*
D11*
X116332114Y-113680000D03*
%TD*%
D10*
%TO.C,J7*%
X118502114Y-109280000D03*
D11*
X118502114Y-107280000D03*
%TD*%
D10*
%TO.C,J15*%
X136040570Y-109280000D03*
D11*
X136040570Y-107280000D03*
%TD*%
D10*
%TO.C,J13*%
X131655956Y-109280000D03*
D11*
X131655956Y-107280000D03*
%TD*%
D10*
%TO.C,J22*%
X120718266Y-111680000D03*
D11*
X120718266Y-113680000D03*
%TD*%
D10*
%TO.C,J24*%
X125104418Y-111680000D03*
D11*
X125104418Y-113680000D03*
%TD*%
D10*
%TO.C,J28*%
X133876722Y-111680000D03*
D11*
X133876722Y-113680000D03*
%TD*%
D10*
%TO.C,J25*%
X127297494Y-111680000D03*
D11*
X127297494Y-113680000D03*
%TD*%
D10*
%TO.C,J6*%
X116309807Y-109280000D03*
D11*
X116309807Y-107280000D03*
%TD*%
D10*
%TO.C,J21*%
X118525190Y-111680000D03*
D11*
X118525190Y-113680000D03*
%TD*%
D10*
%TO.C,J26*%
X129490570Y-111680000D03*
D11*
X129490570Y-113680000D03*
%TD*%
D10*
%TO.C,J27*%
X131683646Y-111680000D03*
D11*
X131683646Y-113680000D03*
%TD*%
D10*
%TO.C,J3*%
X109732886Y-109280000D03*
D11*
X109732886Y-107280000D03*
%TD*%
D10*
%TO.C,J4*%
X111925193Y-109280000D03*
D11*
X111925193Y-107280000D03*
%TD*%
D10*
%TO.C,J8*%
X120694421Y-109280000D03*
D11*
X120694421Y-107280000D03*
%TD*%
D10*
%TO.C,J30*%
X138262874Y-111680000D03*
D11*
X138262874Y-113680000D03*
%TD*%
D14*
%TO.C,USB1*%
X107939400Y-91382900D03*
X107939400Y-82741900D03*
D15*
X112120200Y-91382900D03*
X112120200Y-82741900D03*
D16*
X111589400Y-90041800D03*
X111589400Y-84083000D03*
%TD*%
D10*
%TO.C,J5*%
X114117500Y-109280000D03*
D11*
X114117500Y-107280000D03*
%TD*%
D12*
%TO.C,J2*%
X114242500Y-102970000D03*
D13*
X111702500Y-102970000D03*
%TD*%
M02*
